<?xml version="1.0" encoding="UTF-8" standalone="no"?>
<!-- Created with Inkscape (http://www.inkscape.org/) -->

<svg
   width="800mm"
   height="800mm"
   viewBox="0 0 3023.6218 3023.6221"
   version="1.1"
   id="SVGRoot"
   sodipodi:docname="a.svg"
   inkscape:version="1.1.2 (0a00cf5339, 2022-02-04)"
   inkscape:export-filename="/home/ciro/Desktop/abc/a.png"
   inkscape:export-xdpi="96"
   inkscape:export-ydpi="96"
   xmlns:inkscape="http://www.inkscape.org/namespaces/inkscape"
   xmlns:sodipodi="http://sodipodi.sourceforge.net/DTD/sodipodi-0.dtd"
   xmlns="http://www.w3.org/2000/svg"
   xmlns:svg="http://www.w3.org/2000/svg">
  <sodipodi:namedview
     id="namedview14"
     pagecolor="#505050"
     bordercolor="#eeeeee"
     borderopacity="1"
     inkscape:pageshadow="0"
     inkscape:pageopacity="0"
     inkscape:pagecheckerboard="0"
     inkscape:document-units="px"
     showgrid="true"
     inkscape:zoom="0.16"
     inkscape:cx="1475"
     inkscape:cy="1628.125"
     inkscape:window-width="1440"
     inkscape:window-height="840"
     inkscape:window-x="0"
     inkscape:window-y="0"
     inkscape:window-maximized="1"
     inkscape:current-layer="layer1"
     units="mm"
     width="800mm">
    <inkscape:grid
       type="xygrid"
       id="grid20" />
  </sodipodi:namedview>
  <defs
     id="defs9" />
  <g
     inkscape:label="Capa 1"
     inkscape:groupmode="layer"
     id="layer1">
    <path
       style="fill:#e8448f;fill-opacity:1;fill-rule:evenodd;stroke-width:163.742"
       id="path125"
       d="m 1421.343,1330.5512 c -7.671,-8.4349 -15.906,-15.8971 -23.0132,-25.3049 -78.1588,-103.4605 -127.989,-275.2163 -157.7996,-417.59859 -12.6821,-60.5724 -20.5196,-123.04074 -30.7792,-184.56115 -15.2575,-258.52979 -12.8862,-130.10004 -7.6126,-385.26942 0,0 -67.7463,49.50455 -67.7463,49.50455 v 0 c -3.6829,256.28565 -6.3585,127.04453 8.5856,387.69856 26.3599,166.05901 27.3238,199.58201 68.7284,356.23295 28.8574,109.1803 65.3063,216.8947 126.7619,295.4926 0,0 82.8753,-76.1946 82.8753,-76.1946 z" />
    <path
       style="fill:#ff54c4;fill-opacity:1;fill-rule:evenodd;stroke-width:163.742"
       id="path139"
       d="m 1291.3307,1089.1885 c -60.6503,42.2546 3.1023,-3.0192 -130.2412,105.9588 -12.0029,9.8098 48.6106,-36.7588 35.442,-30.8314 -24.2605,10.9199 -45.3728,33.4561 -69.2417,46.0448 -106.2768,56.0521 -128.49955,53.1695 -244.59596,81.9448 -135.46096,19.5532 -271.23037,7.0692 -404.3562,-32.8762 -57.46568,-17.2432 -131.92423,-46.9942 -185.84304,-84.9459 -24.37468,-17.1566 -46.32864,-40.7031 -69.49293,-61.0546 -19.72559,-27.525 -42.23743,-51.4239 -59.17677,-82.5748 C 79.983019,876.67124 52.396445,652.25213 84.578108,463.69846 c 8.432241,-49.40512 25.375622,-94.94598 38.063412,-142.41898 26.65536,-37.95836 49.12811,-83.21549 79.9661,-113.87503 16.14251,-16.04917 37.55061,-16.60367 56.78209,-22.08176 52.51445,-14.95882 104.95221,-32.37063 158.2717,-39.17695 107.52592,-13.72589 231.33958,-1.35136 338.17903,18.5959 48.86067,9.122 97.0925,24.24827 145.63875,36.37239 135.72521,44.83177 280.54561,96.94386 383.06131,242.63941 8.6868,12.34503 15.8803,26.70108 23.8204,40.0516 0,0 80.0243,-70.08118 80.0243,-70.08118 v 0 c -8.9143,-13.18688 -17.1866,-27.34551 -26.7426,-39.56056 C 1250.5449,232.14995 1102.6594,181.75394 960.96718,140.87705 911.42755,129.45403 862.14221,115.43184 812.3482,106.60802 708.37139,88.182647 578.96985,74.304186 474.29794,84.7673 421.9517,89.999894 368.3116,93.716246 318.54926,117.73456 251.96421,149.87257 188.18121,196.01123 129.33083,251.26943 97.232317,281.40867 76.071912,330.69995 49.442474,370.41526 37.291235,418.55809 21.005488,464.92993 12.988776,514.84383 -17.349401,703.73627 8.7739025,938.86817 91.392765,1095.0987 c 17.023695,32.1914 40.056965,56.7246 60.085445,85.087 23.88389,20.5623 46.46529,44.6665 71.65169,61.687 55.05554,37.2056 133.96241,65.3475 192.13244,81.5177 134.17137,37.2973 270.81994,50.899 407.14898,34.2716 105.44906,-22.8942 139.63661,-22.9619 236.92048,-69.5546 63.4587,-30.3926 136.1873,-98.6274 189.8171,-141.8078 12.0995,-9.7417 -93.4489,75.511 -35.6209,30.9094 0,0 77.8027,-88.0205 77.8027,-88.0205 z"
       inkscape:export-filename="/home/ciro/Desktop/abc/a.png"
       inkscape:export-xdpi="59.836498"
       inkscape:export-ydpi="59.836498" />
  </g>
</svg>
