<?xml version="1.0" encoding="UTF-8" standalone="no"?>
<!-- Created with Inkscape (http://www.inkscape.org/) -->

<svg
   width="800mm"
   height="800mm"
   viewBox="0 0 3023.6218 3023.6221"
   version="1.1"
   id="SVGRoot"
   sodipodi:docname="b.svg"
   inkscape:version="1.1.2 (0a00cf5339, 2022-02-04)"
   inkscape:export-filename="/home/ciro/Desktop/abc/b.png"
   inkscape:export-xdpi="25.4"
   inkscape:export-ydpi="25.4"
   xmlns:inkscape="http://www.inkscape.org/namespaces/inkscape"
   xmlns:sodipodi="http://sodipodi.sourceforge.net/DTD/sodipodi-0.dtd"
   xmlns="http://www.w3.org/2000/svg"
   xmlns:svg="http://www.w3.org/2000/svg">
  <sodipodi:namedview
     id="namedview14"
     pagecolor="#505050"
     bordercolor="#eeeeee"
     borderopacity="1"
     inkscape:pageshadow="0"
     inkscape:pageopacity="0"
     inkscape:pagecheckerboard="0"
     inkscape:document-units="px"
     showgrid="true"
     inkscape:zoom="0.16"
     inkscape:cx="1475"
     inkscape:cy="1628.125"
     inkscape:window-width="1440"
     inkscape:window-height="840"
     inkscape:window-x="0"
     inkscape:window-y="0"
     inkscape:window-maximized="1"
     inkscape:current-layer="layer1"
     units="mm"
     width="800mm">
    <inkscape:grid
       type="xygrid"
       id="grid20" />
  </sodipodi:namedview>
  <defs
     id="defs9" />
  <g
     inkscape:label="Capa 1"
     inkscape:groupmode="layer"
     id="layer1">
    <path
       style="fill:#e8448f;fill-opacity:1;fill-rule:evenodd;stroke-width:163.742"
       id="path125"
       d="m 1421.343,1330.5512 c -7.671,-8.4349 -15.906,-15.8971 -23.0132,-25.3049 -78.1588,-103.4605 -127.989,-275.2163 -157.7996,-417.59859 -12.6821,-60.5724 -20.5196,-123.04074 -30.7792,-184.56115 -15.2575,-258.52979 -12.8862,-130.10004 -7.6126,-385.26942 0,0 -67.7463,49.50455 -67.7463,49.50455 v 0 c -3.6829,256.28565 -6.3585,127.04453 8.5856,387.69856 26.3599,166.05901 27.3238,199.58201 68.7284,356.23295 28.8574,109.1803 65.3063,216.8947 126.7619,295.4926 0,0 82.8753,-76.1946 82.8753,-76.1946 z" />
    <path
       style="fill:#ff54c4;fill-opacity:1;fill-rule:evenodd;stroke-width:163.742"
       id="path139"
       d="m 1291.3307,1089.1885 c -60.6503,42.2546 3.1023,-3.0192 -130.2412,105.9588 -12.0029,9.8098 48.6106,-36.7588 35.442,-30.8314 -24.2605,10.9199 -45.3728,33.4561 -69.2417,46.0448 -106.2768,56.0521 -128.49955,53.1695 -244.59596,81.9448 -135.46096,19.5532 -271.23037,7.0692 -404.3562,-32.8762 -57.46568,-17.2432 -131.92423,-46.9942 -185.84304,-84.9459 -24.37468,-17.1566 -46.32864,-40.7031 -69.49293,-61.0546 -19.72559,-27.525 -42.23743,-51.4239 -59.17677,-82.5748 C 79.983019,876.67124 52.396445,652.25213 84.578108,463.69846 c 8.432241,-49.40512 25.375622,-94.94598 38.063412,-142.41898 26.65536,-37.95836 49.12811,-83.21549 79.9661,-113.87503 16.14251,-16.04917 37.55061,-16.60367 56.78209,-22.08176 52.51445,-14.95882 104.95221,-32.37063 158.2717,-39.17695 107.52592,-13.72589 231.33958,-1.35136 338.17903,18.5959 48.86067,9.122 97.0925,24.24827 145.63875,36.37239 135.72521,44.83177 280.54561,96.94386 383.06131,242.63941 8.6868,12.34503 15.8803,26.70108 23.8204,40.0516 0,0 80.0243,-70.08118 80.0243,-70.08118 v 0 c -8.9143,-13.18688 -17.1866,-27.34551 -26.7426,-39.56056 C 1250.5449,232.14995 1102.6594,181.75394 960.96718,140.87705 911.42755,129.45403 862.14221,115.43184 812.3482,106.60802 708.37139,88.182647 578.96985,74.304186 474.29794,84.7673 421.9517,89.999894 368.3116,93.716246 318.54926,117.73456 251.96421,149.87257 188.18121,196.01123 129.33083,251.26943 97.232317,281.40867 76.071912,330.69995 49.442474,370.41526 37.291235,418.55809 21.005488,464.92993 12.988776,514.84383 -17.349401,703.73627 8.7739025,938.86817 91.392765,1095.0987 c 17.023695,32.1914 40.056965,56.7246 60.085445,85.087 23.88389,20.5623 46.46529,44.6665 71.65169,61.687 55.05554,37.2056 133.96241,65.3475 192.13244,81.5177 134.17137,37.2973 270.81994,50.899 407.14898,34.2716 105.44906,-22.8942 139.63661,-22.9619 236.92048,-69.5546 63.4587,-30.3926 136.1873,-98.6274 189.8171,-141.8078 12.0995,-9.7417 -93.4489,75.511 -35.6209,30.9094 0,0 77.8027,-88.0205 77.8027,-88.0205 z"
       inkscape:export-filename="/home/ciro/Desktop/abc/a.png"
       inkscape:export-xdpi="59.843388"
       inkscape:export-ydpi="59.843388" />
    <path
       style="fill:#53a0fb;fill-opacity:1;fill-rule:evenodd;stroke-width:242.795"
       id="path4493"
       d="m 1615.2084,77.896446 c 73.2472,138.791794 115.41,287.327154 160.2986,433.709584 37.4366,134.30665 61.4877,270.99311 77.3871,408.15675 13.3274,114.96932 20.5784,203.44352 16.2831,319.08882 -1.9171,51.5975 -8.8325,102.9827 -13.2501,154.474 -16.2779,125.9318 -46.9224,250.1743 -93.1521,370.8482 -14.7146,38.4127 -45.4066,107.9522 -68.1418,146.5845 -9.3118,15.8221 -21.1907,30.5054 -31.7871,45.7581 -10.7738,10.312 -21.5449,20.624 -32.3186,30.9372 l 181.1809,-50.8159 4.2309,-1.2325 c 13.5431,-3.9448 26.2588,-16.2852 35.4025,-26.9987 8.678,-15.1359 26.4063,-23.9807 33.9714,-39.5235 18.5945,-38.1994 58.4166,-96.3799 70.2832,-133.6599 38.2928,-120.3003 81.3175,-259.7159 94.2357,-383.7334 3.6669,-51.5023 9.485,-102.9297 11.0001,-154.5066 3.5764,-121.7958 -3.2967,-199.79838 -14.5789,-321.07213 C 2033.304,736.70702 1983.2341,588.32329 1947.5941,451.68226 1906.9535,301.39752 1828.7616,149.80231 1785.0774,0.1174977 Z"
       sodipodi:nodetypes="ccccccscccsccscccccc"
       inkscape:export-filename="/home/ciro/Desktop/abc/b.png"
       inkscape:export-xdpi="25.4"
       inkscape:export-ydpi="25.4" />
    <path
       style="fill:#53a0fb;fill-opacity:1;fill-rule:evenodd;stroke-width:281.072"
       id="path4501"
       d="m 1810.2042,1675.1296 c 26.7776,41.8809 66.4821,70.0522 104.9523,96.9713 74.4715,46.1991 148.4691,93.232 224.9778,135.1488 71.229,37.8093 142.3401,76.3882 216.2497,107.3571 60.0983,22.925 112.9024,23.4798 175.3244,13.5082 14.105,-5.1028 28.6612,-8.859 42.3167,-15.3061 14.9918,-7.076 29.2818,-15.9528 43.332,-25.1173 144.3637,-94.1895 197.5613,-115.5584 292.6429,-234.1682 54.9263,-78.6226 78.6517,-172.138 96.2239,-267.9537 18.746,-111.9654 8.2042,-225.8311 -12.2568,-336.4093 -15.0816,-68.7117 -34.6638,-138.3461 -70.0227,-197.97868 -22.163,-37.3783 -35.3401,-48.70506 -63.6222,-79.89657 -68.572,-68.89985 -148.1936,-119.01477 -231.9188,-160.8301 -73.726,-36.95004 -152.4921,-48.18274 -232.1853,-54.48025 -32.3826,-2.145 -65.222,-5.01548 -97.3349,2.19824 -81.8444,18.38572 -192.6009,109.64707 -240.3388,140.2642 -37.9938,26.32876 -64.9018,64.86748 -91.2037,104.14291 -28.4891,41.6731 -56.8668,83.33531 -87.5362,123.07535 -26.4923,19.8869 -12.6989,10.5917 -41.4313,27.7816 0,0 176.7811,-75.98748 176.7811,-75.98748 v 0 c 28.092,-20.82381 14.7467,-9.27001 39.9907,-34.71972 29.9102,-40.71301 58.0176,-82.96943 87.4459,-124.10884 26.1915,-37.45075 54.7647,-72.09363 92.2821,-95.92032 -293.3598,185.89534 -140.0343,79.12141 -86.2084,61.31081 31.5283,-10.43241 64.3007,-9.13462 96.745,-7.5403 78.3127,4.62634 156.3902,13.96739 229.6574,47.59435 82.5148,39.73361 161.3834,87.16546 229.0616,154.16286 10.9096,11.6728 22.5912,22.51274 32.7316,35.01864 52.3395,64.5541 77.8871,148.9282 96.4726,231.7526 20.2534,108.665 28.1496,219.9875 7.5813,329.5853 -18.7065,93.4601 -44.5698,184.2101 -101.318,258.5714 -27.9351,33.1911 -28.8451,36.1312 -61.1082,66.4473 -11.7696,11.0574 -50.3106,38.842 -36.2263,31.9171 40.8616,-20.0886 77.9042,-48.7208 117.4495,-71.8511 13.8921,-8.1262 -26.4044,19.0234 -40.4497,26.8146 -12.5923,6.9839 -26.1437,11.5735 -39.2166,17.3619 -12.2119,2.5814 -24.2823,6.1978 -36.6325,7.7288 -43.6115,5.4083 -88.7126,-3.8658 -130.9713,-14.7097 -75.8479,-26.3547 -147.9999,-63.9605 -219.8447,-101.4031 -74.7775,-42.2004 -147.3156,-88.6918 -219.1143,-136.8762 -34.5214,-24.6548 -73.4414,-50.3848 -94.2752,-91.0509 0,0 -169.0021,107.5939 -169.0021,107.5939 z" />
  </g>
</svg>
