<?xml version="1.0" encoding="UTF-8" standalone="no"?>
<!-- Created with Inkscape (http://www.inkscape.org/) -->

<svg
   width="800px"
   height="800px"
   viewBox="0 0 800 800"
   version="1.1"
   id="SVGRoot"
   sodipodi:docname="fondoazul.svg"
   inkscape:version="1.1.2 (0a00cf5339, 2022-02-04)"
   inkscape:export-filename="/home/ciro/Desktop/gift/bombillo/bombilloAmarillo.png"
   inkscape:export-xdpi="96"
   inkscape:export-ydpi="96"
   xmlns:inkscape="http://www.inkscape.org/namespaces/inkscape"
   xmlns:sodipodi="http://sodipodi.sourceforge.net/DTD/sodipodi-0.dtd"
   xmlns="http://www.w3.org/2000/svg"
   xmlns:svg="http://www.w3.org/2000/svg">
  <sodipodi:namedview
     id="namedview1227"
     pagecolor="#505050"
     bordercolor="#eeeeee"
     borderopacity="1"
     inkscape:pageshadow="0"
     inkscape:pageopacity="0"
     inkscape:pagecheckerboard="0"
     inkscape:document-units="px"
     showgrid="false"
     inkscape:zoom="1"
     inkscape:cx="421.5"
     inkscape:cy="333.5"
     inkscape:window-width="1440"
     inkscape:window-height="840"
     inkscape:window-x="0"
     inkscape:window-y="0"
     inkscape:window-maximized="1"
     inkscape:current-layer="layer2" />
  <defs
     id="defs1222">
    <linearGradient
       id="linearGradient1997"
       inkscape:swatch="solid">
      <stop
         style="stop-color:#ff54c4;stop-opacity:1;"
         offset="0"
         id="stop1995" />
    </linearGradient>
  </defs>
  <g
     inkscape:label="Capa 1"
     inkscape:groupmode="layer"
     id="layer1" />
  <g
     inkscape:groupmode="layer"
     id="layer2"
     inkscape:label="Capa 2">
    <g
       id="g233068"
       transform="matrix(0.92164628,0,0,0.94027396,57.861869,50.365955)">
      <g
         id="g233058">
        <g
           id="g138344-93-2"
           transform="matrix(1.0360116,0,0,0.98209597,-565.2994,153.81323)"
           style="fill:#c5d1d4;fill-opacity:1;stroke-width:0;stroke-miterlimit:4;stroke-dasharray:none">
          <path
             style="fill:#c5d1d4;fill-opacity:1;stroke:#333333;stroke-width:0;stroke-linecap:butt;stroke-linejoin:miter;stroke-miterlimit:4;stroke-dasharray:none;stroke-opacity:1"
             d="M 684.91055,19.880503 675.21744,6.7235156 C 664.69127,-4.9316896 660.96626,-12.348814 653.242,-27.684914 c -5.2591,-11.646086 -7.7225,-22.445063 -8.14243,-35.0983 0.4611,-14.515506 4.15119,-27.751997 10.86328,-40.613876 3.72003,-8.27216 13.55148,-22.13418 25.86348,-30.95964 18.53717,-13.49837 36.76029,-16.48639 55.9834,-14.66217 10.90792,0.70689 19.56266,4.04509 29.23592,9.02495 10.94566,8.37618 20.04043,17.48675 27.49314,30.08114 6.939,11.348638 13.3806,32.091762 12.6707,44.407622 -0.1883,15.180107 -3.185,29.855529 -8.5285,43.515666 -7.7417,15.6561014 -22.18872,28.6181866 -28.73829,42.469543 -2.28991,24.167224 -11.19297,25.733963 -40.89374,24.189935 L 706.49868,43.460098 C 690.09822,41.745232 689.75189,40.916622 684.91055,19.880503 Z"
             id="path58579-6-2"
             sodipodi:nodetypes="ccccccccccccccc" />
        </g>
      </g>
      <g
         id="g199378">
        <g
           id="g138344"
           transform="matrix(1.0360116,0,0,0.98209597,-568.87326,155.31843)">
          <path
             style="fill:#00ccff;fill-opacity:0.164706;stroke:#333333;stroke-width:7.422;stroke-linecap:butt;stroke-linejoin:miter;stroke-miterlimit:4;stroke-dasharray:none;stroke-opacity:1"
             d="M 684.91055,19.880503 675.21744,6.7235156 C 664.69127,-4.9316896 660.96626,-12.348814 653.242,-27.684914 c -5.2591,-11.646086 -7.7225,-22.445063 -8.14243,-35.0983 0.4611,-14.515506 4.15119,-27.751997 10.86328,-40.613876 3.72003,-8.27216 13.55148,-22.13418 25.86348,-30.95964 18.53717,-13.49837 36.76029,-16.48639 55.9834,-14.66217 10.90792,0.70689 19.56266,4.04509 29.23592,9.02495 10.94566,8.37618 20.04043,17.48675 27.49314,30.08114 6.939,11.348638 13.3806,32.091762 12.6707,44.407622 -0.1883,15.180107 -3.185,29.855529 -8.5285,43.515666 -7.7417,15.6561014 -22.18872,28.6181866 -28.73829,42.469543 -2.28991,24.167224 -11.19297,25.733963 -40.89374,24.189935 L 706.49868,43.460098 C 690.09822,41.745232 689.75189,40.916622 684.91055,19.880503 Z"
             id="path58579"
             sodipodi:nodetypes="ccccccccccccccc" />
        </g>
        <path
           style="fill:#a5cbd4;fill-opacity:1;stroke:#333333;stroke-width:5.01018;stroke-linecap:round;stroke-linejoin:round;stroke-miterlimit:4;stroke-dasharray:none;stroke-opacity:1"
           d="m 171.97714,197.69775 -3.48046,-71.69506 c -1.94119,-21.52973 -13.99181,-39.248266 -25.46034,-34.146233 -17.81285,11.663553 11.13799,37.036453 45.87119,9.755833 12.00917,-10.792789 7.29054,-28.512305 -2.87434,-28.990751 -16.76772,3.063193 -16.03068,26.630538 15.61131,40.648611 19.11085,4.77855 27.52315,-5.02869 28.77784,-8.12195 9.7057,-13.78563 -11.72752,-22.180307 -22.29511,-0.0709 -6.48273,8.19285 -9.54052,45.06783 -9.68248,53.19202 -0.63783,7.34259 1.0714,35.14575 1.43057,40.24846 z"
           id="path66819"
           sodipodi:nodetypes="ccccccccccc" />
      </g>
      <path
         style="fill:#e8ece2;fill-opacity:0.38419;stroke:#00e200;stroke-width:0;stroke-linecap:butt;stroke-linejoin:miter;stroke-miterlimit:4;stroke-dasharray:none;stroke-opacity:1"
         d="m 157.15551,193.38867 c -0.38462,-7.83011 -0.71614,-15.03522 -2.36847,-18.06603 -6.57517,-11.32819 -24.34927,-36.20283 -29.61084,-56.42806 -25.13137,-65.397419 61.56115,-137.061967 132.0264,-57.659221 -29.95855,-72.06263 -121.31851,-60.85986123 -147.71404,3.192897 -8.52582,19.938931 -6.46548,40.764984 -3.07204,48.249464 3.57361,15.23183 11.56154,25.92453 18.50561,37.63118 11.76824,12.3471 16.95737,19.69933 19.35374,23.02889 4.00064,16.27625 5.47066,20.90949 12.87964,20.05088 z"
         id="path83821"
         sodipodi:nodetypes="ccccccccc" />
    </g>
    <g
       id="g276265">
      <path
         style="fill:#c6cbcc;fill-opacity:1;stroke:#333333;stroke-width:3.75603;stroke-linecap:butt;stroke-linejoin:miter;stroke-miterlimit:4;stroke-dasharray:none;stroke-opacity:1"
         d="m 217.15558,262.36791 0.39146,15.47828 c 4.03337,8.13667 19.50838,6.06867 20.79474,-1.62405 l 0.93086,-14.87368 c -5.9041,0.19512 -15.63967,1.16726 -22.11706,1.01945 z"
         id="path138404"
         sodipodi:nodetypes="ccccc" />
      <path
         style="fill:#c6cbcc;fill-opacity:1;stroke:#333333;stroke-width:5.29882;stroke-linecap:butt;stroke-linejoin:miter;stroke-miterlimit:4;stroke-dasharray:none;stroke-opacity:1"
         d="m 188.47888,234.53829 c -4.31633,9.71458 5.77046,10.90748 19.60943,11.84629 76.74579,5.20636 60.30032,-13.5619 51.40774,-12.41656 -27.26903,3.51214 -69.02926,-3.90384 -71.01717,0.57027 z"
         id="path127438"
         sodipodi:nodetypes="ssss" />
      <path
         style="fill:#c6cbcc;fill-opacity:1;stroke:#333333;stroke-width:5.29882;stroke-linecap:butt;stroke-linejoin:miter;stroke-miterlimit:4;stroke-dasharray:none;stroke-opacity:1"
         d="m 188.76794,255.20089 c -4.80459,8.80569 4.93413,10.95986 18.75601,12.11033 68.54847,5.70566 61.09319,-11.19123 52.10332,-13.30802 -6.67788,-1.57241 -69.24632,-1.75858 -70.85933,1.19769 z"
         id="path127438-7"
         sodipodi:nodetypes="ssss" />
      <path
         style="fill:#c6cbcc;fill-opacity:1;stroke:#333333;stroke-width:5.29882;stroke-linecap:butt;stroke-linejoin:miter;stroke-miterlimit:4;stroke-dasharray:none;stroke-opacity:1"
         d="m 187.54389,245.78035 c -7.82129,7.97021 7.38136,8.78598 21.48987,10.14168 73.39406,7.05247 65.81699,-15.94779 49.52731,-10.71194 -23.34844,7.50465 -67.84609,-2.66121 -71.01718,0.57026 z"
         id="path127438-6"
         sodipodi:nodetypes="ssss" />
    </g>
    <g
       id="g259721"
       style="fill:#d9d9d9;fill-opacity:1">
      <path
         style="fill:#d9d9d9;fill-opacity:1;stroke:#333333;stroke-width:6.23205;stroke-linecap:butt;stroke-linejoin:miter;stroke-miterlimit:4;stroke-dasharray:none;stroke-opacity:1"
         d="m 535.51958,363.44036 c 8.02512,-21.6371 12.38366,-50.59846 -0.0162,-75.49012 -7.575,-18.31512 -20.78917,-29.06889 -29.95541,-35.9683 -11.22333,-7.90658 -33.22315,-15.89015 -56.85209,-17.03004 -22.91522,0.94161 -43.49041,7.19627 -60.09816,16.60842 -10.90041,9.57814 -23.18104,18.63712 -30.57052,31.01493 -8.09242,14.43689 -6.67459,12.62633 -9.63133,28.23959 -0.93316,16.02895 -0.0917,25.72327 4.49412,40.43543 8.5773,17.58907 11.39807,23.89196 25.79596,36.93435 55.53728,46.47002 131.06483,16.46664 156.83366,-24.74426 z"
         id="path27420"
         sodipodi:nodetypes="cccccccccc" />
      <g
         id="g259713"
         style="fill:#d9d9d9;fill-opacity:1">
        <g
           id="g182053"
           transform="matrix(0.92164628,0,0,0.94027396,56.216697,47.889723)"
           style="fill:#d9d9d9;fill-opacity:1">
          <path
             style="fill:#d9d9d9;fill-opacity:1;stroke:#333333;stroke-width:6.72886;stroke-linecap:butt;stroke-linejoin:miter;stroke-miterlimit:4;stroke-dasharray:none;stroke-opacity:1"
             d="m 255.48333,416.63262 c -17.08518,2.3873 -31.39447,-91.05147 -48.96243,-122.80672 -20.97188,-23.06067 -45.17663,-4.51492 -37.81194,26.59144 6.4239,42.84409 22.6496,83.59183 36.08563,124.9362 11.93475,26.01612 21.55308,28.18421 48.00702,26.10608 l 55.50981,-27.69296 c 34.17657,-13.75995 30.45315,6.58255 24.97907,42.464 -14.19761,95.56449 -25.23372,181.78743 -30.19176,266.11131 -0.33712,9.61517 -0.80281,19.76555 2.20297,32.67735 14.01496,20.78709 24.698,13.91053 32.32968,0.45497 22.05109,-36.70645 32.35443,-107.13934 51.95515,-158.62273 12.25384,-21.41023 30.35939,-13.96556 37.45762,1.45887 l 60.73494,163.24398 c 24.28038,18.54898 32.56816,-6.86059 30.17539,-26.71179 -6.15246,-51.04359 -32.99645,-213.28467 -34.63138,-318.97825 l 57.16287,50.707 c 0.16608,33.96475 -39.55285,62.1704 -61.00917,89.02548 -9.89028,31.55094 21.76402,34.69397 38.00018,27.60735 0.0558,0.70023 48.45146,-50.95489 63.60708,-68.38456 14.21475,-16.34762 12.6678,-52.56481 12.3247,-52.63488 C 490.34813,300.67383 376.7544,355.81815 255.48333,416.63262 Z"
             id="path1491"
             sodipodi:nodetypes="cccccccccccccsccccscc" />
          <path
             style="fill:#d9d9d9;fill-opacity:1;stroke:#c6cbcc;stroke-width:1.14195px;stroke-linecap:butt;stroke-linejoin:miter;stroke-opacity:0"
             d="m 489.87108,578.77571 6.70379,-7.20952 c 0.2375,-0.25541 5.89126,9.02737 6.30409,9.19598 0.10527,0.043 0.15707,0.19082 0.2356,0.28624 0.15708,0.0955 0.30462,0.21878 0.47121,0.28625 2.01864,0.81754 3.37327,2.43542 4.47649,4.58003 0.20811,0.40456 0.55577,0.70462 0.7068,1.145 0.64219,1.87255 0.47122,3.76661 0.47122,5.72503 0,2.90311 0.0216,5.73176 -1.44039,8.21856 -1.98029,3.36837 -3.7414,11.39091 -7.07054,11.96874 -0.54423,0.0944 -6.45223,-0.80538 -6.95403,-0.89042 -2.13687,-0.43445 -1.48973,-2.69465 -2.70336,-3.06328 -1.31112,-0.39825 -2.57163,-3.46871 -2.82725,-4.86629 -0.1532,-0.83767 0.002,-5.42381 -0.2356,-6.00056 -0.0994,-0.24137 -0.41734,-0.31067 -0.47121,-0.57249 -0.14361,-0.69795 1.74869,-3.3965 1.94215,-3.8257 0.59223,-1.31401 0.51691,-2.88728 0.71288,-4.3159 0.27186,-1.98176 0.1254,-4.77164 -0.4712,-6.5838 -0.0654,-0.19861 -0.58422,-0.89182 -0.47122,-1.14141 0.15434,-0.34089 0.43455,-2.61979 0.62057,-2.93646 z"
             id="path155059"
             sodipodi:nodetypes="csscsssssscssssssssc" />
        </g>
        <rect
           style="fill:#d9d9d9;fill-opacity:1;fill-rule:evenodd;stroke:#ffccaa;stroke-width:0;stroke-linecap:round;stroke-linejoin:round;stroke-miterlimit:4;stroke-dasharray:none;stroke-opacity:1"
           id="rect159724"
           width="110.0112"
           height="35.03355"
           x="388.07834"
           y="377.32828"
           rx="245.55775"
           ry="1.1026206" />
      </g>
    </g>
    <g
       id="g255695">
      <g
         id="g182032"
         transform="matrix(0.92164628,0,0,0.94027396,-1033.9368,29.010215)">
        <path
           style="fill:#333333;fill-opacity:1;stroke:#333333;stroke-width:1.00869px;stroke-linecap:butt;stroke-linejoin:miter;stroke-opacity:1"
           d="m 1625.042,288.21757 c -0.5838,6.21649 -1.6482,17.24308 -1.6524,23.54992 0.2335,10.73517 6.9933,6.7567 6.8587,0.43451 0.5059,-5.14789 0.5844,-14.81621 1.1492,-20.04751 0.9438,-12.7961 -6.2338,-7.77095 -6.3555,-3.93692 z"
           id="path39988"
           sodipodi:nodetypes="ccccc" />
        <path
           style="fill:#333333;fill-opacity:1;stroke:#333333;stroke-width:1.02304px;stroke-linecap:butt;stroke-linejoin:miter;stroke-opacity:1"
           d="m 1557.1361,285.7599 c -0.638,5.85084 -1.3932,16.34053 -1.3978,22.27641 -0.6873,8.3564 6.3876,8.35218 7.0879,0.29728 0.553,-4.8451 0.6388,-13.94473 1.256,-18.86834 0.6748,-9.6193 -6.8131,-7.31386 -6.9461,-3.70535 z"
           id="path39988-3"
           sodipodi:nodetypes="ccccc" />
      </g>
      <path
         style="fill:#669ccf;fill-opacity:1;stroke:#333333;stroke-width:4.93384;stroke-linecap:butt;stroke-linejoin:miter;stroke-miterlimit:4;stroke-dasharray:none;stroke-opacity:1"
         d="m 426.86829,442.80717 c 0,-1.83213 15.61113,-1.49018 16.71508,0.0755 8.58753,12.17975 7.24838,9.06133 -0.0129,21.24758 l 13.91824,79.66826 c 0,0 -16.89239,21.71334 -23.03821,21.78748 -5.49845,0.0664 -24.52086,-20.06055 -24.52086,-20.06055 l 17.2063,-79.08853 c -9.53775,-12.73302 -10.10207,-11.31087 -0.26764,-23.62971 z"
         id="path160232"
         sodipodi:nodetypes="ssccsccss" />
    </g>
  </g>
</svg>
