<?xml version="1.0" encoding="UTF-8" standalone="no"?>
<!-- Created with Inkscape (http://www.inkscape.org/) -->

<svg
   width="800px"
   height="800px"
   viewBox="0 0 800 800"
   version="1.1"
   id="SVGRoot"
   sodipodi:docname="3.svg"
   inkscape:version="1.1.2 (0a00cf5339, 2022-02-04)"
   xmlns:inkscape="http://www.inkscape.org/namespaces/inkscape"
   xmlns:sodipodi="http://sodipodi.sourceforge.net/DTD/sodipodi-0.dtd"
   xmlns="http://www.w3.org/2000/svg"
   xmlns:svg="http://www.w3.org/2000/svg">
  <sodipodi:namedview
     id="namedview1048"
     pagecolor="#505050"
     bordercolor="#eeeeee"
     borderopacity="1"
     inkscape:pageshadow="0"
     inkscape:pageopacity="0"
     inkscape:pagecheckerboard="0"
     inkscape:document-units="px"
     showgrid="false"
     inkscape:zoom="0.57398594"
     inkscape:cx="102.78997"
     inkscape:cy="418.12871"
     inkscape:window-width="1920"
     inkscape:window-height="1020"
     inkscape:window-x="0"
     inkscape:window-y="0"
     inkscape:window-maximized="1"
     inkscape:current-layer="layer1"
     inkscape:snap-global="false" />
  <defs
     id="defs1043" />
  <g
     inkscape:label="Capa 1"
     inkscape:groupmode="layer"
     id="layer1">
    <rect
       style="fill:#000000;stroke:#080206;stroke-width:15.5;stroke-linecap:round;stroke-linejoin:round;stroke-miterlimit:4;stroke-dasharray:none;stroke-opacity:1;paint-order:markers fill stroke"
       id="rect23066"
       width="790.13507"
       height="788.05188"
       x="5.7462459"
       y="4.6811275"
       rx="7.7781696"
       ry="5" />
    <path
       style="fill:none;stroke:#2fe6f8;stroke-width:15.5;stroke-linecap:round;stroke-linejoin:miter;stroke-miterlimit:4;stroke-dasharray:none;stroke-opacity:1"
       d="m 92.641214,383.89932 c -6.935682,1.23339 -15.424868,3.94755 -19.711583,1.4354 -40.603827,-17.61379 52.421319,-96.73186 84.961899,-83.27866 27.91318,7.61967 25.66296,31.08182 16.51633,57.64771 -13.42617,44.72591 -34.77263,86.13662 -54.54615,128.26013 -9.97128,35.01867 8.51597,20.66326 19.50931,-6.85664 l 60.68512,-102.96343 c 30.67031,-47.282 40.31582,-71.44792 72.88506,-117.42228 31.24004,-44.65396 50.09074,-26.34299 50.09074,-26.34299 9.80427,7.13345 9.87524,23.19945 10.66986,29.8758 -1.55588,89.00568 -48.57913,163.11711 -58.84526,237.0846 -4.32308,17.70481 -2.93125,33.19957 -1.215,50.94332"
       id="path1005"
       sodipodi:nodetypes="ccccccccsccc" />
    <path
       style="fill:none;stroke:#e96fe3;stroke-width:15.5;stroke-linecap:round;stroke-linejoin:miter;stroke-miterlimit:4;stroke-dasharray:none;stroke-opacity:1"
       d="m 478.9159,408.04501 c -10.7888,11.63562 -31.67203,25.5351 -44.05128,27.57004 -11.51487,1.89285 -20.91059,-3.15296 -21.13531,-16.49247 l 2.00964,-28.27161 c -2.55686,16.76646 -14.53402,35.89566 -25.4372,42.99571 -13.45584,8.61815 -35.97296,-1.80109 -34.56264,-21.00431 3.09677,-22.61694 35.30674,-39.27497 55.08554,-33.08124"
       id="path6594"
       sodipodi:nodetypes="csccccc" />
    <path
       style="fill:none;stroke:#e9e6e3;stroke-width:15.5;stroke-linecap:round;stroke-linejoin:miter;stroke-miterlimit:4;stroke-dasharray:none;stroke-opacity:1"
       d="m 538.28366,422.72564 c -16.24577,10.46666 -70.58664,-17.38341 -48.75935,-39.3523 14.6042,-16.2188 37.85776,-0.39215 34.55584,15.87481 -1.22442,22.11031 -9.13237,31.2057 -22.29598,46.58561 -13.29039,11.17201 -25.22248,15.16329 -33.89463,-1.1517 -4.52108,-18.92747 5.56172,-30.25756 16.40447,-46.36337"
       id="path12924"
       sodipodi:nodetypes="cccccc" />
    <path
       style="fill:none;stroke:#e9e6e3;stroke-width:15.5;stroke-linecap:round;stroke-linejoin:miter;stroke-miterlimit:4;stroke-dasharray:none;stroke-opacity:1"
       d="m 531.0467,424.74735 c 25.77024,-6.6846 30.08635,-13.85124 43.27522,-30.35398 24.10825,-27.04883 35.99018,1.22968 8.97394,23.42127 -11.50932,12.07168 -17.16913,20.47387 11.61211,16.2155 15.65588,-0.94362 10.10432,13.17918 6.70652,26.12608 -13.19808,28.16403 -37.31526,51.2005 -55.19189,61.03743 -10.47115,3.96092 -20.24766,-1.9712 -10.81014,-14.9282 16.12073,-17.16484 31.20806,-33.69882 50.63798,-49.13204 22.85861,-15.50429 44.86857,-32.1745 67.01156,-48.66925"
       id="path18484"
       sodipodi:nodetypes="ccccccccc" />
    <path
       style="fill:none;stroke:#e96fe3;stroke-width:15.5;stroke-linecap:round;stroke-linejoin:miter;stroke-miterlimit:4;stroke-dasharray:none;stroke-opacity:1"
       d="m -236.6289,538.65191 c -10.7888,11.63562 -31.67203,25.5351 -44.05128,27.57004 -11.51487,1.89285 -20.91059,-3.15296 -21.13531,-16.49247 l 2.00964,-28.27161 c -2.55686,16.76646 -14.53402,35.89566 -25.4372,42.99571 -13.45584,8.61815 -35.97296,-1.80109 -34.56264,-21.00431 3.09677,-22.61694 35.30674,-39.27497 55.08554,-33.08124"
       id="path6594-6"
       sodipodi:nodetypes="csccccc" />
    <path
       style="fill:none;stroke:#2fe6f8;stroke-width:15.5;stroke-linecap:round;stroke-linejoin:miter;stroke-miterlimit:4;stroke-dasharray:none;stroke-opacity:1"
       d="m -177.26114,553.33254 c -16.24577,10.46666 -70.58664,-17.38341 -48.75935,-39.3523 14.6042,-16.2188 37.85776,-0.39215 34.55584,15.87481 -1.22442,22.11031 -9.13237,31.2057 -22.29598,46.58561 -13.29039,11.17201 -25.22248,15.16329 -33.89463,-1.1517 -4.52108,-18.92747 5.56172,-30.25756 16.40447,-46.36337"
       id="path12924-7"
       sodipodi:nodetypes="cccccc" />
    <path
       style="fill:none;stroke:#e96fe3;stroke-width:15.5;stroke-linecap:round;stroke-linejoin:miter;stroke-miterlimit:4;stroke-dasharray:none;stroke-opacity:1"
       d="m -184.4981,555.35425 c 25.77024,-6.6846 30.08635,-13.85124 43.27522,-30.35398 24.10825,-27.04883 35.99018,1.22968 8.97394,23.42127 -11.50932,12.07168 -17.16913,20.47387 11.61211,16.2155 15.65588,-0.94362 10.10432,13.17918 6.70652,26.12608 -13.19808,28.16403 -37.31526,51.2005 -55.19189,61.03743 -10.47115,3.96092 -20.24766,-1.9712 -10.81014,-14.9282 16.12073,-17.16484 31.20806,-33.69882 50.63798,-49.13204 22.85861,-15.50429 44.868569,-32.1745 67.011559,-48.66925"
       id="path18484-5"
       sodipodi:nodetypes="ccccccccc" />
    <path
       style="fill:none;stroke:#e9e6e3;stroke-width:15.5;stroke-linecap:round;stroke-linejoin:miter;stroke-miterlimit:4;stroke-dasharray:none;stroke-opacity:1"
       d="m -604.89926,406.99584 c -6.93568,1.23339 -15.42486,3.94755 -19.71158,1.4354 -40.60383,-17.61379 52.42132,-96.73186 84.9619,-83.27866 27.91318,7.61967 25.66296,31.08182 16.51633,57.64771 -13.42617,44.72591 -34.77263,86.13662 -54.54615,128.26013 -9.97128,35.01867 8.51597,20.66326 19.50931,-6.85664 l 60.68512,-102.96343 c 30.67031,-47.282 40.31582,-71.44792 72.88506,-117.42228 31.24004,-44.65396 50.09074,-26.34299 50.09074,-26.34299 9.80427,7.13345 9.87524,23.19945 10.66986,29.8758 -1.55588,89.00568 -48.57913,163.11711 -58.84526,237.0846 -4.32308,17.70481 -2.93125,33.19957 -1.215,50.94332"
       id="path1005-3"
       sodipodi:nodetypes="ccccccccsccc" />
  </g>
</svg>
