<?xml version="1.0" encoding="UTF-8" standalone="no"?>
<!-- Created with Inkscape (http://www.inkscape.org/) -->

<svg
   width="800px"
   height="800px"
   viewBox="0 0 800 800"
   version="1.1"
   id="SVGRoot"
   sodipodi:docname="3.svg"
   inkscape:version="1.1.2 (0a00cf5339, 2022-02-04)"
   xmlns:inkscape="http://www.inkscape.org/namespaces/inkscape"
   xmlns:sodipodi="http://sodipodi.sourceforge.net/DTD/sodipodi-0.dtd"
   xmlns="http://www.w3.org/2000/svg"
   xmlns:svg="http://www.w3.org/2000/svg">
  <sodipodi:namedview
     id="namedview1227"
     pagecolor="#505050"
     bordercolor="#eeeeee"
     borderopacity="1"
     inkscape:pageshadow="0"
     inkscape:pageopacity="0"
     inkscape:pagecheckerboard="0"
     inkscape:document-units="px"
     showgrid="false"
     inkscape:zoom="1"
     inkscape:cx="372"
     inkscape:cy="499"
     inkscape:window-width="1920"
     inkscape:window-height="1020"
     inkscape:window-x="0"
     inkscape:window-y="0"
     inkscape:window-maximized="1"
     inkscape:current-layer="layer2"
     inkscape:snap-global="false"
     showguides="false" />
  <defs
     id="defs1222">
    <linearGradient
       id="linearGradient1997"
       inkscape:swatch="solid">
      <stop
         style="stop-color:#ff54c4;stop-opacity:1;"
         offset="0"
         id="stop1995" />
    </linearGradient>
  </defs>
  <g
     inkscape:groupmode="layer"
     id="layer2"
     inkscape:label="Capa 2">
    <rect
       style="fill:#79eac7;fill-opacity:0.338603;fill-rule:evenodd;stroke:#000000;stroke-width:0;stroke-linecap:round;stroke-linejoin:bevel;stroke-miterlimit:4;stroke-dasharray:none;paint-order:markers fill stroke"
       id="rect4985"
       width="800.63623"
       height="616.5979"
       x="-0.069279075"
       y="-1.0028864" />
    <path
       style="fill:#38cf20;fill-opacity:1;stroke:#000000;stroke-width:0.5;stroke-linecap:butt;stroke-linejoin:miter;stroke-miterlimit:4;stroke-dasharray:none;stroke-opacity:1"
       d="m 404.99213,458.5207 -6.99275,-7.95149 c -4.03828,-9.34836 -7.71683,-18.96845 -19.65505,-22.34985 -9.01371,-2.05184 -17.66179,-4.53304 -25.36916,-5.95992 -12.95434,-2.39828 -23.25119,-1.81812 -28.15997,8.78519 -7.3103,14.07464 3.4994,22.27219 16.67953,27.20267 10.27891,3.84516 21.99955,5.70323 27.69139,6.81225 11.7341,1.7153 18.09974,-1.47654 24.32063,-4.4414 z"
       id="path53683"
       sodipodi:nodetypes="cccscsccc" />
    <path
       style="fill:#38cf20;fill-opacity:1;stroke:#000000;stroke-width:0.5;stroke-linecap:butt;stroke-linejoin:miter;stroke-miterlimit:4;stroke-dasharray:none;stroke-opacity:1"
       d="m 406.97269,458.54236 5.19533,-8.30705 c 2.69084,-9.54362 5.07016,-19.33924 14.60286,-23.34925 7.23009,-2.52753 14.13354,-5.46403 20.33709,-7.29835 10.42675,-3.0831 18.87629,-3.05253 23.57617,7.2669 6.88758,13.65551 -1.4099,22.41137 -11.85638,28.03333 -8.147,4.38443 -17.60106,6.86275 -22.17874,8.27255 -9.47434,2.33657 -14.88226,-0.5095 -20.15715,-3.13678 z"
       id="path53683-7"
       sodipodi:nodetypes="cccscsccc" />
    <path
       style="fill:#ffb698;fill-opacity:1;fill-rule:evenodd;stroke:none;stroke-width:0.0425893;stroke-linecap:round;stroke-linejoin:round;stroke-miterlimit:4;stroke-dasharray:none;stroke-opacity:1"
       d=""
       id="path201103" />
    <path
       style="fill:#ffb698;fill-opacity:1;fill-rule:evenodd;stroke:none;stroke-width:0.0425893;stroke-linecap:round;stroke-linejoin:round;stroke-miterlimit:4;stroke-dasharray:none;stroke-opacity:1"
       d=""
       id="path201142" />
    <path
       style="fill:#ffb698;fill-opacity:1;fill-rule:evenodd;stroke:none;stroke-width:0.0425893;stroke-linecap:round;stroke-linejoin:round;stroke-miterlimit:4;stroke-dasharray:none;stroke-opacity:1"
       d=""
       id="path201181" />
    <path
       style="fill:#ffb698;fill-opacity:1;fill-rule:evenodd;stroke:none;stroke-width:0.0425893;stroke-linecap:round;stroke-linejoin:round;stroke-miterlimit:4;stroke-dasharray:none;stroke-opacity:1"
       d=""
       id="path201220" />
    <path
       style="fill:#ffb698;fill-opacity:1;fill-rule:evenodd;stroke:none;stroke-width:0.0425893;stroke-linecap:round;stroke-linejoin:round;stroke-miterlimit:4;stroke-dasharray:none;stroke-opacity:1"
       d=""
       id="path201259" />
    <path
       style="fill:#ffb698;fill-opacity:1;fill-rule:evenodd;stroke:none;stroke-width:0.0425893;stroke-linecap:round;stroke-linejoin:round;stroke-miterlimit:4;stroke-dasharray:none;stroke-opacity:1"
       d=""
       id="path201337" />
    <path
       style="fill:#ffb698;fill-opacity:1;fill-rule:evenodd;stroke:none;stroke-width:0.0425893;stroke-linecap:round;stroke-linejoin:round;stroke-miterlimit:4;stroke-dasharray:none;stroke-opacity:1"
       d=""
       id="path201454" />
    <path
       style="fill:#ffb698;fill-opacity:1;fill-rule:evenodd;stroke:none;stroke-width:0.0425893;stroke-linecap:round;stroke-linejoin:round;stroke-miterlimit:4;stroke-dasharray:none;stroke-opacity:1"
       d=""
       id="path201571" />
    <path
       style="fill:#fab69b;fill-opacity:1;fill-rule:evenodd;stroke:none;stroke-width:0.0106473;stroke-linecap:round;stroke-linejoin:round;stroke-miterlimit:4;stroke-dasharray:none;stroke-opacity:1;paint-order:stroke fill markers"
       d="m 1361.4812,973.54868 c -0.01,-0.005 -0.052,-0.0286 -0.096,-0.0532 -0.071,-0.0395 -0.079,-0.0464 -0.072,-0.0601 0.01,-0.0134 0,-0.0177 -0.03,-0.0323 -0.021,-0.009 -0.043,-0.0168 -0.048,-0.0168 -0.024,0 -0.1043,-0.043 -0.1844,-0.0983 -0.1431,-0.0988 -0.1753,-0.12766 -0.2229,-0.19954 -0.012,-0.0186 -0.025,-0.0376 -0.029,-0.0422 -0.012,-0.0141 -0.073,-0.1464 -0.092,-0.1973 -0.01,-0.0266 -0.025,-0.0943 -0.035,-0.15064 -0.018,-0.10906 -0.015,-0.10394 -0.09,-0.18233 -0.012,-0.013 -0.023,-0.0258 -0.023,-0.0284 0,-0.003 -0.015,-0.0185 -0.034,-0.0354 -0.034,-0.0305 -0.034,-0.0306 -0.066,-0.0192 -0.037,0.013 -0.1172,0.0147 -0.1655,0.003 -0.031,-0.007 -0.053,-0.004 -0.1089,0.0173 -0.012,0.004 -0.033,0.004 -0.055,-0.002 -0.029,-0.007 -0.049,-0.0221 -0.104,-0.08 -0.037,-0.039 -0.088,-0.0939 -0.1117,-0.12196 l -0.044,-0.0511 h 0.069 c 0.057,0 0.076,0.004 0.1114,0.0205 0.023,0.0113 0.046,0.0205 0.05,0.0205 0,0 0.018,0.006 0.031,0.0123 0.017,0.009 0.037,0.0109 0.073,0.007 0.038,-0.004 0.064,-4.4e-4 0.1147,0.0141 0.042,0.0122 0.088,0.019 0.1285,0.0192 l 0.063,2.9e-4 0.031,0.0368 c 0.017,0.0203 0.043,0.0492 0.058,0.0643 0.015,0.0151 0.027,0.0306 0.027,0.0344 0,0.004 0.01,0.01 0.012,0.0137 0.01,0.004 0.02,0.018 0.031,0.0318 0.01,0.0138 0.039,0.048 0.063,0.0761 0.029,0.0325 0.052,0.0695 0.064,0.10169 0.046,0.12086 0.1471,0.30859 0.1668,0.30859 0,0 0.01,0.004 0.01,0.008 0,0.005 0.01,0.0149 0.014,0.023 0.01,0.008 0.029,0.0329 0.047,0.0549 0.018,0.022 0.043,0.0494 0.057,0.0609 0.013,0.0115 0.03,0.0274 0.037,0.0352 0.01,0.008 0.017,0.0143 0.023,0.0143 0.01,0 0.01,0.003 0.01,0.007 0,0.004 0.012,0.0135 0.027,0.0211 0.1142,0.0594 0.1615,0.0901 0.2212,0.14363 0.098,0.0879 0.097,0.0864 0.094,0.1632 0,0.0621 0,0.0647 -0.019,0.0565 z"
       id="path45335" />
    <path
       style="fill:#fab69b;fill-opacity:1;fill-rule:evenodd;stroke:none;stroke-width:0.0106473;stroke-linecap:round;stroke-linejoin:round;stroke-miterlimit:4;stroke-dasharray:none;stroke-opacity:1;paint-order:stroke fill markers"
       d="m 1361.5816,973.59716 c -0.072,-0.035 -0.086,-0.0452 -0.08,-0.0552 0.013,-0.0205 0.01,-0.10009 -0.01,-0.12899 -0.028,-0.0515 -0.1634,-0.15836 -0.2765,-0.21817 -0.066,-0.0349 -0.1111,-0.0719 -0.1669,-0.13675 -0.029,-0.0334 -0.068,-0.0792 -0.088,-0.10169 -0.037,-0.0428 -0.1146,-0.18539 -0.1581,-0.291 -0.023,-0.0564 -0.078,-0.13396 -0.1475,-0.20861 -0.012,-0.0135 -0.05,-0.0559 -0.083,-0.0942 l -0.06,-0.0696 -0.074,-0.005 c -0.041,-0.003 -0.095,-0.0111 -0.119,-0.0184 -0.024,-0.007 -0.073,-0.0133 -0.1075,-0.0133 -0.053,0 -0.074,-0.005 -0.1357,-0.0292 -0.04,-0.0161 -0.076,-0.0327 -0.081,-0.0369 0,-0.004 -0.013,-0.008 -0.019,-0.008 -0.01,0 -0.015,-0.004 -0.021,-0.008 -0.022,-0.0182 -0.093,-0.066 -0.1081,-0.0729 -0.018,-0.008 -0.1004,-0.0975 -0.1477,-0.16047 -0.017,-0.0225 -0.048,-0.0595 -0.069,-0.0821 -0.021,-0.0226 -0.043,-0.0494 -0.048,-0.0594 -0.01,-0.01 -0.016,-0.0182 -0.024,-0.0183 -0.01,-3e-5 -0.025,-0.007 -0.039,-0.0163 -0.014,-0.009 -0.031,-0.0163 -0.038,-0.0163 -0.012,-5e-5 -0.067,-0.0492 -0.061,-0.0551 0,-10e-4 0.024,0.008 0.051,0.0216 0.055,0.0274 0.1361,0.0579 0.1692,0.0639 0.015,0.003 0.029,0.0144 0.04,0.0339 0.019,0.0321 0.093,0.1076 0.1051,0.1076 0,0 0.01,0.005 0.014,0.0106 0.01,0.0102 0.068,0.0494 0.068,0.0432 0,-0.002 -0.014,-0.0168 -0.031,-0.0337 -0.017,-0.0169 -0.039,-0.0419 -0.049,-0.0557 -0.035,-0.0473 -0.018,-0.0413 0.033,0.0118 0.066,0.0687 0.1168,0.10769 0.1577,0.12129 0.018,0.006 0.044,0.0196 0.059,0.0304 0.014,0.0107 0.029,0.0195 0.031,0.0195 0,0 0.011,0.005 0.017,0.0121 0.01,0.007 0.028,0.0162 0.046,0.0213 0.019,0.005 0.038,0.012 0.043,0.0155 0,0.003 0.025,0.009 0.045,0.0116 0.02,0.003 0.072,0.0161 0.1147,0.0292 0.043,0.0131 0.095,0.0262 0.1166,0.029 0.036,0.005 0.044,0.011 0.1074,0.0763 0.1174,0.12203 0.1527,0.15972 0.1527,0.16316 0,0.002 0.016,0.0189 0.035,0.0379 0.086,0.0855 0.1286,0.13548 0.147,0.17333 0.019,0.0395 0.034,0.0685 0.049,0.0941 0,0.007 0.014,0.027 0.023,0.045 0.01,0.018 0.026,0.0475 0.037,0.0655 0.011,0.018 0.023,0.0383 0.026,0.0451 0,0.011 0.032,0.0422 0.08,0.0937 0.029,0.0304 0.1043,0.0908 0.1679,0.13396 0.065,0.0444 0.1536,0.12143 0.2764,0.24152 0.058,0.057 0.076,0.0791 0.076,0.096 0,0.0121 0.01,0.0419 0.015,0.0662 0.012,0.0346 0.028,0.12246 0.023,0.122 -5e-4,-5e-5 -0.041,-0.0194 -0.089,-0.043 z"
       id="path45374" />
    <path
       style="fill:#fab69b;fill-opacity:1;fill-rule:evenodd;stroke:none;stroke-width:0.0106473;stroke-linecap:round;stroke-linejoin:round;stroke-miterlimit:4;stroke-dasharray:none;stroke-opacity:1;paint-order:stroke fill markers"
       d="m 1361.5078,972.52518 c -0.017,-0.0176 -0.031,-0.0349 -0.031,-0.0385 0,-0.004 -0.012,-0.0153 -0.027,-0.0261 -0.029,-0.0214 -0.064,-0.0524 -0.1149,-0.10012 -0.018,-0.0169 -0.036,-0.0307 -0.04,-0.0307 0,0 -0.01,-0.005 -0.01,-0.011 0,-0.0149 -0.1024,-0.12985 -0.2478,-0.27826 -0.021,-0.0218 -0.039,-0.041 -0.039,-0.0425 0,-0.002 -0.016,-0.0188 -0.035,-0.0383 -0.019,-0.0196 -0.061,-0.0646 -0.092,-0.10003 -0.078,-0.0881 -0.1187,-0.12724 -0.1456,-0.14122 -0.012,-0.007 -0.021,-0.015 -0.018,-0.0188 0,-0.004 -7e-4,-0.009 -0.01,-0.0113 -0.01,-0.002 -0.02,-0.0161 -0.03,-0.0305 l -0.019,-0.0262 0.018,0.006 c 0.01,0.003 0.023,0.002 0.03,-0.004 0.01,-0.008 0.019,-0.004 0.05,0.0197 0.1727,0.13453 0.6562,0.62616 0.7575,0.77021 0.036,0.0517 0.039,0.0574 0.026,0.0668 -0.013,0.01 -0.013,0.0119 -10e-5,0.0398 0.018,0.0372 0.01,0.036 -0.029,-0.005 z"
       id="path45413" />
    <path
       style="fill:#fab69b;fill-opacity:1;fill-rule:evenodd;stroke:none;stroke-width:0.0106473;stroke-linecap:round;stroke-linejoin:round;stroke-miterlimit:4;stroke-dasharray:none;stroke-opacity:1;paint-order:stroke fill markers"
       d="m 1362.1865,972.41917 c -0.052,-0.0483 -0.1115,-0.12052 -0.1115,-0.13473 0,-0.005 -0.024,-0.0339 -0.047,-0.0588 -0.01,-0.0107 -0.018,-0.0216 -0.018,-0.0243 0,-0.0155 -0.1335,-0.15787 -0.202,-0.21547 -0.051,-0.0433 -0.2009,-0.12464 -0.23,-0.12534 -0.01,-1.3e-4 -0.01,-0.005 -0.01,-0.0115 0,-0.006 0,-0.0103 -0.01,-0.009 -0.014,0.003 -0.035,-0.015 -0.156,-0.13255 -0.1,-0.0973 -0.1153,-0.11579 -0.1371,-0.16381 -0.028,-0.0623 -0.054,-0.10393 -0.083,-0.13254 -0.042,-0.0415 -0.1418,-0.11892 -0.1625,-0.12552 -0.01,-0.003 -0.016,-0.009 -0.016,-0.0128 0,-0.004 -0.01,-0.008 -0.014,-0.008 -0.01,-10e-5 -0.024,-0.007 -0.035,-0.0162 -0.011,-0.009 -0.026,-0.0162 -0.033,-0.0165 -0.01,-2.4e-4 -0.019,-0.006 -0.028,-0.0125 -0.01,-0.007 -0.021,-0.012 -0.028,-0.012 -0.01,0 -0.031,-0.009 -0.054,-0.0204 -0.023,-0.0112 -0.052,-0.0213 -0.064,-0.0223 -0.032,-0.003 -0.023,-0.0166 0.019,-0.0292 0.092,-0.0274 0.2346,0.0278 0.409,0.15858 0.1256,0.0942 0.1656,0.12876 0.4053,0.35019 0.2946,0.2721 0.3517,0.32838 0.3364,0.33151 -0.017,0.004 -0.017,0.005 0.013,0.0581 0.047,0.0825 0.1675,0.23974 0.2655,0.34489 0.043,0.0459 0.076,0.098 0.062,0.098 0,0 -0.035,-0.0261 -0.07,-0.0581 z"
       id="path45491" />
    <path
       style="fill:#fab69b;fill-opacity:1;fill-rule:evenodd;stroke:none;stroke-width:0.0106473;stroke-linecap:round;stroke-linejoin:round;stroke-miterlimit:4;stroke-dasharray:none;stroke-opacity:1;paint-order:stroke fill markers"
       d="m 1361.8652,972.53055 c -0.019,-0.0111 -0.04,-0.0296 -0.047,-0.0411 -0.01,-0.0115 -0.017,-0.0187 -0.022,-0.0161 0,0.003 -0.01,5.4e-4 -0.01,-0.005 0,-0.005 -0.01,-0.0196 -0.018,-0.032 -0.01,-0.0123 -0.03,-0.0367 -0.043,-0.0542 -0.029,-0.0374 -0.1338,-0.14281 -0.1421,-0.14281 0,0 -0.012,-0.006 -0.02,-0.0143 -0.027,-0.0277 -0.044,-0.043 -0.05,-0.043 0,0 -0.023,-0.012 -0.045,-0.0266 -0.059,-0.0398 -0.069,-0.0463 -0.091,-0.0556 -0.032,-0.0136 -0.1,-0.0742 -0.094,-0.0837 0,-0.005 0,-0.006 0,-0.004 -0.01,0.005 -0.038,-0.0214 -0.031,-0.0282 0,-0.002 -0.011,-0.0198 -0.029,-0.0393 -0.018,-0.0195 -0.032,-0.0367 -0.032,-0.0382 0,-10e-4 -0.01,-0.0112 -0.018,-0.0216 -0.038,-0.0393 -0.1043,-0.11719 -0.1043,-0.12303 -10e-5,-0.008 -0.03,-0.0433 -0.068,-0.081 -0.017,-0.0167 -0.031,-0.0344 -0.031,-0.0392 0,-0.005 0,-0.009 -0.01,-0.009 0,0 -0.026,-0.0184 -0.05,-0.041 -0.024,-0.0225 -0.047,-0.0409 -0.051,-0.0409 0,0 -0.011,-0.007 -0.016,-0.0164 0,-0.009 -0.014,-0.0164 -0.021,-0.0164 -0.01,0 -0.012,-0.003 -0.012,-0.006 -10e-5,-0.003 -0.018,-0.0172 -0.041,-0.0307 -0.022,-0.0135 -0.039,-0.0283 -0.038,-0.0328 0,-0.005 0.018,-0.0131 0.037,-0.0192 0.019,-0.006 0.034,-0.0155 0.034,-0.0209 0,-0.005 -0.017,-0.0225 -0.039,-0.0377 -0.064,-0.0457 0,-0.0401 0.065,0.006 0.012,0.008 0.033,0.0216 0.047,0.0305 0.014,0.009 0.026,0.019 0.026,0.0225 0,0.004 0,0.006 0.01,0.006 0.011,0 0.092,0.0819 0.142,0.14233 0.018,0.022 0.036,0.0441 0.041,0.0492 0.023,0.0266 0.085,0.11003 0.094,0.12787 0.012,0.023 0.1049,0.13364 0.1158,0.13787 0,10e-4 0.01,0.007 0.01,0.0125 0,0.009 0.03,0.0281 0.074,0.046 0.019,0.008 0.052,0.0285 0.1484,0.0935 0.1261,0.0848 0.338,0.27427 0.378,0.33791 0.011,0.0173 0.032,0.0549 0.048,0.0835 l 0.028,0.052 -0.019,0.0156 c -0.026,0.0212 -0.064,0.0195 -0.1044,-0.005 z"
       id="path45530" />
    <path
       style="fill:#fab69b;fill-opacity:1;fill-rule:evenodd;stroke:none;stroke-width:0.0322749;stroke-linecap:round;stroke-linejoin:round;stroke-miterlimit:4;stroke-dasharray:none;stroke-opacity:1;paint-order:stroke fill markers"
       d="m 1353.986,970.85732 c -0.065,-0.004 -0.1179,-0.0176 -0.1179,-0.0299 0,-0.0123 0.042,-0.0405 0.093,-0.0628 0.051,-0.0223 0.1125,-0.0507 0.1362,-0.0632 0.024,-0.0125 0.059,-0.0227 0.078,-0.0227 0.019,0 0.067,-0.0167 0.1058,-0.0371 0.039,-0.0204 0.096,-0.0372 0.127,-0.0372 0.031,-9e-5 0.056,-0.011 0.056,-0.0242 0,-0.0132 0.016,-0.0178 0.036,-0.0102 0.02,0.008 0.062,-0.004 0.092,-0.0256 0.08,-0.0562 0.1188,-0.0474 0.049,0.011 -0.032,0.0268 -0.052,0.0488 -0.043,0.0488 0.05,0 -0.074,0.11899 -0.1524,0.14542 -0.052,0.0174 -0.116,0.0412 -0.1433,0.0528 -0.1066,0.0454 -0.2035,0.0622 -0.3166,0.0549 z"
       id="path45842" />
    <path
       style="fill:#fab69b;fill-opacity:1;fill-rule:evenodd;stroke:none;stroke-width:0.0322749;stroke-linecap:round;stroke-linejoin:round;stroke-miterlimit:4;stroke-dasharray:none;stroke-opacity:1;paint-order:stroke fill markers"
       d="m 1354.7091,970.53903 c 0.01,-0.0372 0.034,-0.0751 0.054,-0.0842 0.02,-0.009 0.062,-0.0305 0.095,-0.0474 0.1726,-0.0902 0.4389,-0.14577 0.6177,-0.12891 0.062,0.006 0.029,0.049 -0.05,0.0653 -0.1343,0.0277 -0.2767,0.0797 -0.4435,0.16177 -0.087,0.0429 -0.1885,0.0832 -0.225,0.0895 -0.062,0.0107 -0.065,0.007 -0.048,-0.0561 z"
       id="path45881" />
    <g
       id="g75288"
       transform="translate(-1.7960025,2.9101867)">
      <g
         id="g74478"
         transform="translate(-20.028639,-176.98541)" />
    </g>
    <g
       id="g81608"
       transform="translate(963.9802,28.38168)" />
    <path
       style="fill:#ac512c;fill-opacity:1;stroke:#000000;stroke-width:0;stroke-linecap:butt;stroke-linejoin:miter;stroke-miterlimit:4;stroke-dasharray:none;stroke-opacity:1"
       d="m -0.6642694,571.88857 c 148.8872094,35.6433 323.6245194,-17.80431 425.5985494,8.79948 80.70505,32.9546 218.53721,3.8146 316.64011,-17.1273 27.27869,-7.86485 46.89623,4.60586 59.84862,19.69625 l 0.37445,220.06179 -802.29749221,-2.0783 z"
       id="path3365"
       sodipodi:nodetypes="ccccccc" />
    <path
       style="fill:none;stroke:#006000;stroke-width:6.4;stroke-linecap:round;stroke-linejoin:miter;stroke-miterlimit:4;stroke-dasharray:none;stroke-opacity:1"
       d="m 396.22362,421.11399 c 11.83916,37.35152 20.55526,74.3597 7.94207,105.53136 -11.51304,28.45283 -8.1033,58.85605 -8.74428,88.48615"
       id="path18524"
       sodipodi:nodetypes="csc" />
    <path
       style="fill:#006000;fill-opacity:1;stroke:#006000;stroke-width:1px;stroke-linecap:butt;stroke-linejoin:miter;stroke-opacity:1"
       d="m 393.94255,413.84893 -3.17603,12.72404 10.7882,12.61115 1.5702,-16.99734 z"
       id="path59651"
       sodipodi:nodetypes="ccccc" />
    <path
       style="fill:none;stroke:#000000;stroke-width:1.8;stroke-linecap:butt;stroke-linejoin:miter;stroke-opacity:1;stroke-miterlimit:4;stroke-dasharray:none"
       d="m 329.09833,678.33537 c 3.60245,-4.2058 12.46789,-8.37195 14.89385,-13.17282 0.33385,-0.66068 0,-2.36433 0,-3.12064 0,-7.62713 -1.26288,-14.84303 4.21257,-20.32232 1.9672,-1.96857 6.54975,-4.19509 9.02693,-4.91811 7.40816,-2.16223 30.13709,4.20633 34.22051,-5.54269 0.43404,-1.03625 -0.26049,-3.15111 0,-4.21552 0.24645,-1.00705 0.96754,-1.79989 1.20359,-2.81035 0.37321,-1.59766 0.15324,-3.34707 0.6018,-4.91811 0.17942,-0.62841 0.80238,-0.93677 1.20359,-1.40517 0.20059,-1.56875 0.40119,-3.1375 0.60179,-4.70627 15.97676,4.4217 3.14335,1.7495 24.05326,2.56751 3.0019,0.11747 5.97871,0.69389 8.97552,0.92917 2.04885,0.16086 3.37395,-0.40836 5.28882,0.70259 3.52701,2.04628 4.99676,14.3994 3.00897,18.26725 -0.80608,1.56847 -2.16785,2.67236 -3.00897,4.21552 -0.36315,0.66624 -4.03202,8.17299 -3.60351,9.39553 2.41231,6.88219 19.99903,-1.52922 24.47596,6.27791 1.28402,2.23913 -0.86389,14.21514 0,18.2495 1.17496,5.48697 12.79498,9.29006 16.35478,12.00602 5.36832,4.09579 10.35801,8.56153 16.12184,11.98725 0.53183,0.3161 1.25724,-0.31315 1.79035,0 1.81213,1.06446 1.88946,3.4134 4.07909,3.4134"
       id="path64199" />
    <path
       style="fill:none;stroke:#000000;stroke-width:1.6;stroke-linecap:butt;stroke-linejoin:miter;stroke-opacity:1;stroke-miterlimit:4;stroke-dasharray:none"
       d="m 396.07652,612.41363 c -4.77648,0 -9.55295,0 -14.32942,0 -6.90285,0 -14.34657,-1.1808 -20.88285,1.44124 -5.3832,2.15948 3.3943,-1.09489 -2.69456,2.16186 -0.40168,0.21485 -0.94559,-0.21484 -1.34728,0 -0.56805,0.30384 -0.81882,1.06437 -1.34728,1.44124 -2.10605,1.50196 -4.60461,2.27106 -6.78837,3.64018 -2.75703,1.72854 -5.00308,4.29385 -7.76117,6.02045 -1.47594,0.92396 -3.22059,1.27345 -4.71548,2.16186 -1.78603,1.06144 -0.71303,1.73792 -2.69456,2.16186 -0.66056,0.14138 -1.3732,-0.19797 -2.02092,0 -0.96557,0.29512 -1.71427,1.2082 -2.69456,1.44124 -1.9413,0.46148 -7.49597,0.69283 -9.43096,0 -5.81415,-2.08176 -9.56144,-7.29279 -16.17373,-6.50576 -5.4595,0.64981 -8.93534,4.80027 -13.65979,7.32068 -5.8391,3.11506 -11.40843,7.05074 -17.31055,10.04425 -7.68712,3.31153 -4.90035,1.86945 -8.56864,3.83151"
       id="path64201" />
    <path
       style="fill:none;stroke:#000000;stroke-width:1.6;stroke-linecap:butt;stroke-linejoin:miter;stroke-miterlimit:4;stroke-dasharray:none;stroke-opacity:1"
       d="m 396.3628,613.03563 c 7.2832,0.0172 20.39684,-6.35519 26.77842,-2.50072 2.09559,1.26574 3.55703,3.67935 5.75334,4.80916 3.14864,1.61969 3.08251,1.6623 4.95671,2.85952 1.85616,1.18569 3.40341,2.7258 5.07416,4.11958 2.97278,2.47997 6.08414,7.82833 10.27359,8.58746 2.1522,0.38997 4.85265,0 7.05395,0 10.48108,0 21.78345,-1.06961 31.69403,2.67436 3.91822,1.4802 8.93607,4.95455 11.30954,8.176 0.94734,1.28581 1.17542,3.6993 1.81766,4.96501 0.46092,0.90839 1.31226,1.61577 1.83633,2.49561 1.37762,2.3129 0.87716,2.645 2.65671,4.02553 4.27408,3.31575 9.4444,4.65159 14.41997,6.74 3.13731,1.31682 4.04179,2.29218 6.98309,4.08206 3.20465,1.95013 1.39452,0.43863 3.16796,2.04537"
       id="path64203"
       sodipodi:nodetypes="csssssssssssssc" />
    <path
       style="fill:none;stroke:#000000;stroke-width:1.6;stroke-linecap:butt;stroke-linejoin:miter;stroke-opacity:1;stroke-miterlimit:4;stroke-dasharray:none"
       d="m 396.63824,612.71196 c 0.62352,1.27176 1.31533,2.51226 1.87055,3.81529 1.22679,2.87914 3.98671,7.75215 2.1915,11.06451 -0.28688,0.52931 -6.44781,8.08342 -4.6641,9.54223 3.27715,2.6802 15.27208,3.83758 17.29737,7.21305 0.25724,0.42875 0,1 0,1.5 0,5.15946 -3.29372,7.93631 -5.01365,12.52277 -0.79296,2.11456 -0.92188,5.05939 -2,7 -0.51827,0.93289 -1.56657,1.52479 -2,2.5 -0.24846,0.55905 -0.40572,4.66493 0,5.47641 0.54448,1.08899 2.18472,3.18471 2.97638,3.97638 0.34735,0.34734 2.54658,1.596 2.97113,2.47113 1.12143,2.31158 1.22762,4.98004 1.97113,7.45843 2.30159,7.67197 -0.47174,-1.41174 2.53064,5.54828 0.1931,0.44764 -0.19323,1.01495 0,1.46253 1.47702,3.42115 4.31453,5.69744 5.89878,8.86593"
       id="path64945" />
    <path
       style="fill:#006000;fill-opacity:1;fill-rule:evenodd;stroke:#008b00;stroke-width:0;stroke-linecap:round;stroke-linejoin:bevel;stroke-miterlimit:4;stroke-dasharray:none;stroke-opacity:1;paint-order:markers fill stroke"
       id="path65049"
       sodipodi:type="arc"
       sodipodi:cx="394.86487"
       sodipodi:cy="614.84161"
       sodipodi:rx="4.2515206"
       sodipodi:ry="4.221262"
       sodipodi:start="6.1987812"
       sodipodi:end="6.17775"
       sodipodi:open="true"
       sodipodi:arc-type="chord"
       d="m 399.10125,614.48574 a 4.2515206,4.221262 0 0 1 -3.85569,4.56018 4.2515206,4.221262 0 0 1 -4.61307,-3.80423 4.2515206,4.221262 0 0 1 3.80718,-4.60017 4.2515206,4.221262 0 0 1 4.65311,3.75585 z" />
  </g>
  <g
     inkscape:label="Capa 1"
     inkscape:groupmode="layer"
     id="layer1" />
</svg>
