<?xml version="1.0" encoding="UTF-8" standalone="no"?>
<!-- Created with Inkscape (http://www.inkscape.org/) -->

<svg
   width="800px"
   height="800px"
   viewBox="0 0 800 800"
   version="1.1"
   id="SVGRoot"
   sodipodi:docname="2.svg"
   inkscape:version="1.1.2 (0a00cf5339, 2022-02-04)"
   xmlns:inkscape="http://www.inkscape.org/namespaces/inkscape"
   xmlns:sodipodi="http://sodipodi.sourceforge.net/DTD/sodipodi-0.dtd"
   xmlns="http://www.w3.org/2000/svg"
   xmlns:svg="http://www.w3.org/2000/svg">
  <sodipodi:namedview
     id="namedview1227"
     pagecolor="#505050"
     bordercolor="#eeeeee"
     borderopacity="1"
     inkscape:pageshadow="0"
     inkscape:pageopacity="0"
     inkscape:pagecheckerboard="0"
     inkscape:document-units="px"
     showgrid="false"
     inkscape:zoom="0.64"
     inkscape:cx="342.1875"
     inkscape:cy="426.5625"
     inkscape:window-width="1920"
     inkscape:window-height="1020"
     inkscape:window-x="0"
     inkscape:window-y="0"
     inkscape:window-maximized="1"
     inkscape:current-layer="layer2"
     inkscape:snap-global="false"
     showguides="true"
     inkscape:lockguides="true" />
  <defs
     id="defs1222">
    <inkscape:perspective
       sodipodi:type="inkscape:persp3d"
       inkscape:vp_x="7002.843 : -4598.5513 : 1"
       inkscape:vp_y="-383.42134 : 14181.327 : 0"
       inkscape:vp_z="15976.979 : 87.587655 : 1"
       inkscape:persp3d-origin="12012.057 : -6099.0464 : 1"
       id="perspective9768" />
    <linearGradient
       id="linearGradient1997"
       inkscape:swatch="solid">
      <stop
         style="stop-color:#ff54c4;stop-opacity:1;"
         offset="0"
         id="stop1995" />
    </linearGradient>
    <inkscape:perspective
       sodipodi:type="inkscape:persp3d"
       inkscape:vp_x="4850.5301 : -2682.8665 : 1"
       inkscape:vp_y="-231.15493 : 8318.1507 : 0"
       inkscape:vp_z="10260.808 : 65.819283 : 1"
       inkscape:persp3d-origin="7870.4566 : -3562.9918 : 1"
       id="perspective9768-8" />
  </defs>
  <g
     inkscape:groupmode="layer"
     id="layer2"
     inkscape:label="Capa 2">
    <rect
       style="fill:#ffffff;fill-opacity:1;fill-rule:evenodd;stroke:#000000;stroke-width:5;stroke-linecap:square;stroke-linejoin:round;stroke-miterlimit:4;stroke-dasharray:none;stroke-opacity:1;paint-order:markers fill stroke"
       id="rect42082"
       width="808.14526"
       height="811.61554"
       x="-0.18099542"
       y="0.26400787" />
    <path
       style="fill:#ffb698;fill-opacity:1;fill-rule:evenodd;stroke:none;stroke-width:0.0425893;stroke-linecap:round;stroke-linejoin:round;stroke-miterlimit:4;stroke-dasharray:none;stroke-opacity:1"
       d=""
       id="path201103" />
    <path
       style="fill:#ffb698;fill-opacity:1;fill-rule:evenodd;stroke:none;stroke-width:0.0425893;stroke-linecap:round;stroke-linejoin:round;stroke-miterlimit:4;stroke-dasharray:none;stroke-opacity:1"
       d=""
       id="path201142" />
    <path
       style="fill:#ffb698;fill-opacity:1;fill-rule:evenodd;stroke:none;stroke-width:0.0425893;stroke-linecap:round;stroke-linejoin:round;stroke-miterlimit:4;stroke-dasharray:none;stroke-opacity:1"
       d=""
       id="path201181" />
    <path
       style="fill:#ffb698;fill-opacity:1;fill-rule:evenodd;stroke:none;stroke-width:0.0425893;stroke-linecap:round;stroke-linejoin:round;stroke-miterlimit:4;stroke-dasharray:none;stroke-opacity:1"
       d=""
       id="path201220" />
    <path
       style="fill:#ffb698;fill-opacity:1;fill-rule:evenodd;stroke:none;stroke-width:0.0425893;stroke-linecap:round;stroke-linejoin:round;stroke-miterlimit:4;stroke-dasharray:none;stroke-opacity:1"
       d=""
       id="path201259" />
    <path
       style="fill:#ffb698;fill-opacity:1;fill-rule:evenodd;stroke:none;stroke-width:0.0425893;stroke-linecap:round;stroke-linejoin:round;stroke-miterlimit:4;stroke-dasharray:none;stroke-opacity:1"
       d=""
       id="path201337" />
    <path
       style="fill:#ffb698;fill-opacity:1;fill-rule:evenodd;stroke:none;stroke-width:0.0425893;stroke-linecap:round;stroke-linejoin:round;stroke-miterlimit:4;stroke-dasharray:none;stroke-opacity:1"
       d=""
       id="path201454" />
    <path
       style="fill:#ffb698;fill-opacity:1;fill-rule:evenodd;stroke:none;stroke-width:0.0425893;stroke-linecap:round;stroke-linejoin:round;stroke-miterlimit:4;stroke-dasharray:none;stroke-opacity:1"
       d=""
       id="path201571" />
    <g
       id="g75288"
       transform="translate(-1.7960025,2.9101867)">
      <g
         id="g74478"
         transform="translate(-20.028639,-176.98541)" />
    </g>
    <g
       id="g81608"
       transform="translate(963.9802,28.38168)" />
    <g
       id="g8793"
       transform="translate(-205.59587,-330.05648)">
      <path
         style="fill:#10cb8a;fill-opacity:1;stroke:#000000;stroke-width:1px;stroke-linecap:butt;stroke-linejoin:miter;stroke-opacity:1"
         d="m 255.33271,443.30589 c -34.46922,32.03471 -26.56586,53.23425 1.54617,78.35916 -37.80517,36.06676 -29.11709,30.75476 -3.31166,72.04938 -30.37315,28.84868 -24.64518,38.98847 4.67961,64.27097 -35.08572,33.10305 -27.80301,33.83761 -6.80797,58.42982 -18.19199,41.50543 -3.09561,44.53277 33.88636,37.29529 6.18638,34.81126 32.68139,29.29174 47.46062,6.15945 26.14418,39.08436 42.29736,24.77177 59.07355,2.3498 34.36277,33.63593 53.4131,23.14636 65.70206,-3.02224 30.83464,36.58349 56.79667,20.67627 71.42167,-4.49104 12.5629,26.68189 50.76852,36.67449 48.04377,-3.56021 23.27047,14.49646 67.08424,8.09886 32.11727,-41.8613 49.69293,-22.56361 19.98203,-37.78317 -10.38351,-37.45651 34.66233,-13.04047 47.05302,-53.46092 4.8697,-64.41507 50.53442,-20.52714 34.20639,-34.66023 -0.044,-49.47891 54.71034,-20.56896 32.34232,-40.83864 -2.81873,-50.86747 39.63178,-9.65113 46.02812,-36.45286 6.93746,-52.99775 36.23637,-10.39798 26.27464,-34.46578 -0.0263,-38.27622 13.52062,-36.84368 -5.5951,-47.35691 -33.87223,-30.92354 0.40207,-34.78568 -41.91373,-33.62751 -51.23252,-9.68937 -22.69048,-47.38581 -47.53063,-26.56885 -59.67942,5.67665 -24.23109,-41.40042 -22.55305,-40.28274 -52.54888,-5.6411 -29.87909,-46.26748 -44.78748,-16.99726 -55.49712,5.9987 -34.55475,-55.89738 -62.03958,-36.03322 -73.13202,4.72112 -47.04326,-24.30962 -63.26873,28.06861 -26.38386,57.37039 z"
         id="path4301"
         sodipodi:nodetypes="cccccccccccccccccccccccccc" />
      <rect
         style="fill:#10cba0;fill-opacity:1;fill-rule:evenodd;stroke:#000000;stroke-width:0.1;stroke-linecap:square;stroke-linejoin:round;stroke-miterlimit:4;stroke-dasharray:none;stroke-opacity:1;paint-order:markers fill stroke"
         id="rect3880"
         width="322.53418"
         height="334.20224"
         x="269.3494"
         y="401.87378" />
    </g>
    <g
       id="g3221"
       transform="matrix(0.42907588,0,0,1,211.92524,-190.34216)"
       style="stroke-width:1.52663">
      <path
         style="fill:#d2091b;fill-opacity:1;stroke:#000000;stroke-width:1.67929;stroke-linecap:butt;stroke-linejoin:miter;stroke-miterlimit:4;stroke-dasharray:none;stroke-opacity:1"
         d="m 263.33398,343.1855 193.70521,-69.49483 -1.3997,-27.87543 c -7.83369,-45.22718 14.12549,-22.46872 44.09357,-7.87219 L 620.6344,190.11607 c 103.78772,33.40701 113.62905,119.13746 85.21168,168.02929 l -169.29576,-14.2565 c -19.89579,19.85768 -32.63075,30.26547 -46.7821,6.67565 l -12.84785,-21.41692 z"
         id="path987"
         sodipodi:nodetypes="cccccccccc" />
      <path
         style="fill:#716a6a;fill-opacity:1;stroke:#000000;stroke-width:1.52663px;stroke-linecap:butt;stroke-linejoin:miter;stroke-opacity:1"
         d="m 457.03919,273.69067 19.88118,55.45692 -213.58639,14.03791 z"
         id="path2322"
         sodipodi:nodetypes="cccc" />
    </g>
    <text
       xml:space="preserve"
       style="font-size:98.0533px;line-height:1.25;font-family:C059;-inkscape-font-specification:'C059, Normal';stroke-width:1"
       x="-124.16917"
       y="288.72015"
       id="text9743"
       transform="scale(0.89724242,1.114526)"><tspan
         sodipodi:role="line"
         id="tspan9741"
         x="-124.16917"
         y="288.72015"
         style="font-style:normal;font-variant:normal;font-weight:normal;font-stretch:normal;font-family:'Courier New';-inkscape-font-specification:'Courier New';stroke-width:1">Anclar</tspan></text>
    <g
       id="g28302"
       transform="translate(-140.50781,49.912452)">
      <path
         style="fill:#ea4a9e;fill-opacity:1;stroke:#000000;stroke-width:2.4;stroke-linecap:butt;stroke-linejoin:miter;stroke-miterlimit:4;stroke-dasharray:none;stroke-opacity:1"
         d="m 44.372034,598.06318 c -28.151231,7.81817 -35.1465589,44.15683 -2.1932,60.38344 l 284.058926,-0.46103 -16.12422,-8.55561 10.90531,-11.59919 -12.69151,-9.02234 11.76989,-8.99878 -9.53247,-11.02851 14.73677,-10.43307 z"
         id="path14180"
         sodipodi:nodetypes="cccccccccc" />
      <text
         xml:space="preserve"
         style="font-size:64px;line-height:1.25;font-family:C059;-inkscape-font-specification:'C059, Normal'"
         x="217.35757"
         y="649.38715"
         id="text18603"><tspan
           sodipodi:role="line"
           id="tspan18601"
           x="217.35757"
           y="649.38715"
           style="font-size:64px">Un</tspan></text>
    </g>
    <g
       id="g28297"
       transform="translate(121.90466,31.835365)">
      <path
         style="fill:#ea4a9e;fill-opacity:1;stroke:#000000;stroke-width:2.4;stroke-linecap:butt;stroke-linejoin:miter;stroke-miterlimit:4;stroke-dasharray:none;stroke-opacity:1"
         d="m 621.80959,598.24449 c 29.42084,7.81817 36.73168,44.15683 2.29211,60.38344 l -297.86394,-0.64234 -16.12422,-8.55561 10.90531,-11.59919 -12.69151,-9.02234 11.76989,-8.99878 -9.53247,-11.02851 14.73677,-10.43307 z"
         id="path14180-3"
         sodipodi:nodetypes="cccccccccc" />
      <text
         xml:space="preserve"
         style="font-size:64px;line-height:1.25;font-family:C059;-inkscape-font-specification:'C059, Normal'"
         x="327.45404"
         y="649.62109"
         id="text18603-6"><tspan
           sodipodi:role="line"
           id="tspan18601-7"
           x="327.45404"
           y="649.62109"
           style="font-size:64px">ir</tspan></text>
    </g>
    <g
       id="g42058"
       transform="translate(-548.06868,-38.671267)">
      <g
         id="g40048">
        <path
           style="fill:#e739b2;fill-opacity:1;stroke:#000000;stroke-width:6.4;stroke-linecap:butt;stroke-linejoin:miter;stroke-miterlimit:4;stroke-dasharray:none;stroke-opacity:1"
           d="m 1250.0273,517.36986 c 0.1502,51.00905 94.0897,51.65434 109.5081,-2.77791 3.6901,-47.96582 99.9941,-55.74302 103.0007,-1.30892 0.6784,56.03121 -94.0167,55.43463 -102.8969,1.53738 -20.2332,-61.99697 -108.4134,-41.4012 -109.6119,2.54945 z"
           id="path34830"
           sodipodi:nodetypes="ccccc" />
        <path
           style="fill:#e739b2;fill-opacity:1;stroke:#000000;stroke-width:5;stroke-linecap:butt;stroke-linejoin:miter;stroke-miterlimit:4;stroke-dasharray:none;stroke-opacity:1"
           d="m 1359.5354,514.59195 -9.9137,22.3646 c -10.6714,22.41892 -23.0252,56.8963 -53.028,71.87248 l 33.2123,-0.54521 c 21.5096,-14.78468 23.4626,-38.00378 29.1639,-59.26377 2.8814,20.54576 12.9122,47.68886 30.2659,62.83576 l 26.1309,-0.20231 c -30.8627,-19.0606 -36.3428,-54.73501 -45.7701,-74.56376 z"
           id="path36712"
           sodipodi:nodetypes="ccccccccc" />
      </g>
      <path
         style="fill:#ffffff;fill-opacity:1;stroke:#000000;stroke-width:1px;stroke-linecap:butt;stroke-linejoin:miter;stroke-opacity:1"
         d="m 1346.8525,512.23491 c -3.1954,-33.56828 -85.7217,-30.38954 -83.361,2.63956 10.0241,42.43949 84.2485,24.33711 83.361,-2.63956 z"
         id="path40083"
         sodipodi:nodetypes="ccc" />
      <path
         style="fill:#ffffff;fill-opacity:1;stroke:#000000;stroke-width:1px;stroke-linecap:butt;stroke-linejoin:miter;stroke-opacity:1"
         d="m 1455.2885,512.38596 c -4.4878,-36.79511 -85.7217,-30.38954 -83.361,2.63956 10.1461,42.62825 85.4718,28.11931 83.361,-2.63956 z"
         id="path40083-5"
         sodipodi:nodetypes="ccc" />
    </g>
    <text
       xml:space="preserve"
       style="font-style:normal;font-variant:normal;font-weight:normal;font-stretch:normal;font-size:33.7135px;line-height:0.75;font-family:'Courier New';-inkscape-font-specification:'Courier New';stroke-width:0.999998"
       x="1060.8577"
       y="357.50046"
       id="text43640"
       transform="scale(0.86156095,1.160684)"><tspan
         sodipodi:role="line"
         id="tspan43638"
         x="1060.8577"
         y="357.50046"
         style="font-style:normal;font-variant:normal;font-weight:normal;font-stretch:normal;font-family:'Courier New';-inkscape-font-specification:'Courier New';stroke-width:0.999998">Atar</tspan></text>
  </g>
  <g
     inkscape:label="Capa 1"
     inkscape:groupmode="layer"
     id="layer1" />
</svg>
