<?xml version="1.0" encoding="UTF-8" standalone="no"?>
<!-- Uploaded to: SVG Repo, www.svgrepo.com, Transformed by: SVG Repo Mixer Tools -->

<svg
   fill="#000000"
   height="800px"
   width="800px"
   version="1.1"
   id="Capa_1"
   viewBox="0 0 297 297"
   xml:space="preserve"
   transform="matrix(-1, 0, 0, 1, 0, 0)"
   sodipodi:docname="completo.svg"
   inkscape:version="1.1.2 (0a00cf5339, 2022-02-04)"
   xmlns:inkscape="http://www.inkscape.org/namespaces/inkscape"
   xmlns:sodipodi="http://sodipodi.sourceforge.net/DTD/sodipodi-0.dtd"
   xmlns="http://www.w3.org/2000/svg"
   xmlns:svg="http://www.w3.org/2000/svg"><defs
   id="defs2716" /><sodipodi:namedview
   id="namedview2714"
   pagecolor="#505050"
   bordercolor="#eeeeee"
   borderopacity="1"
   inkscape:pageshadow="0"
   inkscape:pageopacity="0"
   inkscape:pagecheckerboard="0"
   showgrid="false"
   inkscape:zoom="0.73625"
   inkscape:cx="389.81324"
   inkscape:cy="400"
   inkscape:window-width="1440"
   inkscape:window-height="840"
   inkscape:window-x="0"
   inkscape:window-y="0"
   inkscape:window-maximized="1"
   inkscape:current-layer="g2710" />

<g
   id="SVGRepo_bgCarrier"
   stroke-width="0" />

<g
   id="SVGRepo_iconCarrier"
   transform="matrix(-1.0011596,0,0,1,297.28327,0)"> <g
   id="g2710"> <path
   d="m 215.44781,134.81923 c -2.37355,2.36004 -2.37476,6.18841 -0.004,8.55087 15.95453,15.89553 15.94485,41.76867 -0.023,57.67504 -2.37112,2.36366 -2.36991,6.19083 0.002,8.55208 1.18677,1.17972 2.73967,1.77018 4.29441,1.77018 1.55472,0 3.11004,-0.59167 4.2962,-1.77259 20.6986,-20.62044 20.70889,-54.16299 0.0224,-74.77378 -2.37052,-2.36124 -6.21708,-2.36365 -8.58941,-0.002 z"
   id="path2702"
   style="stroke-width:0.603848" /> <path
   d="m 192.7412,152.1656 c -2.37293,2.35944 -2.37413,6.18842 -0.004,8.55027 6.3605,6.33784 6.3599,16.64926 -0.001,22.98651 -2.37111,2.36186 -2.3699,6.19083 0.004,8.55148 1.18555,1.18033 2.73967,1.76959 4.29319,1.76959 1.55533,0 3.11066,-0.59047 4.29622,-1.77261 11.09246,-11.0507 11.09307,-29.03273 0.001,-40.08283 -2.37051,-2.36367 -6.21709,-2.36487 -8.58942,-0.002 z"
   id="path2704"
   style="stroke-width:0.603848" /> <path
   d="m 250.92505,108.03688 c -2.37112,-2.36306 -6.21648,-2.36426 -8.5888,-0.003 -2.37355,2.36065 -2.37476,6.18963 -0.004,8.55149 30.77615,30.66011 30.76284,80.56031 -0.0315,111.2349 -2.37173,2.36185 -2.37051,6.19082 0.002,8.55148 1.18616,1.17972 2.73908,1.77018 4.2938,1.77018 1.55412,0 3.11006,-0.59167 4.29622,-1.77259 35.52566,-35.38806 35.53957,-92.95825 0.0309,-128.33184 z"
   id="path2706"
   style="stroke-width:0.603848" />  <path
   d="m 167.79617,181.70972 c -21.31652,-7.75949 -15.2484,-13.93639 5.095,-22.74915 9.74479,-4.22907 3.81898,-13.14773 4.08519,-20.28265 0.1194,-3.26575 11.25494,-2.61472 10.4471,-15.21198 -0.56916,-8.871 -17.51589,-21.51063 -22.13353,-26.904149 -2.66686,-3.11229 5.43468,-11.628648 -0.27084,-19.11817 -7.78944,-10.236627 -9.01959,-28.047446 -13.73362,-38.008802 0,0 3.59406,-6.330402 0.84,-9.929624 C 128.367,-1.5062435 39.708997,1.3413572 17.052202,46.98259 -8.3816094,98.218501 -8.7212804,169.03308 44.161404,207.18478 c 23.519738,16.96394 -6.605171,77.03908 -6.605171,77.03908 h 93.266497 c 0,-10.25774 -10.40121,-47.05447 7.80321,-45.40304 15.81751,1.4344 35.18779,0.64574 33.47108,-19.95448 -0.51866,-6.21394 -1.12914,-11.8086 2.63473,-16.95866 3.7639,-5.14476 9.21235,-14.32275 -6.93564,-20.19796"
   fill="#000000"
   id="path812"
   style="stroke-width:4.92902" /></g> </g>

</svg>
