<?xml version="1.0" encoding="UTF-8" standalone="no"?>
<!-- Created with Inkscape (http://www.inkscape.org/) -->

<svg
   width="800px"
   height="800px"
   viewBox="0 0 800 800"
   version="1.1"
   id="SVGRoot"
   sodipodi:docname="5.svg"
   inkscape:version="1.1.2 (0a00cf5339, 2022-02-04)"
   xmlns:inkscape="http://www.inkscape.org/namespaces/inkscape"
   xmlns:sodipodi="http://sodipodi.sourceforge.net/DTD/sodipodi-0.dtd"
   xmlns="http://www.w3.org/2000/svg"
   xmlns:svg="http://www.w3.org/2000/svg">
  <sodipodi:namedview
     id="namedview1048"
     pagecolor="#505050"
     bordercolor="#eeeeee"
     borderopacity="1"
     inkscape:pageshadow="0"
     inkscape:pageopacity="0"
     inkscape:pagecheckerboard="0"
     inkscape:document-units="px"
     showgrid="false"
     inkscape:zoom="0.70710678"
     inkscape:cx="115.2584"
     inkscape:cy="812.46569"
     inkscape:window-width="1440"
     inkscape:window-height="840"
     inkscape:window-x="0"
     inkscape:window-y="0"
     inkscape:window-maximized="1"
     inkscape:current-layer="layer1" />
  <defs
     id="defs1043" />
  <g
     inkscape:label="Capa 1"
     inkscape:groupmode="layer"
     id="layer1">
    <path
       style="fill:#820a0c;fill-opacity:1;stroke:#75000c;stroke-width:3.36762;stroke-linecap:butt;stroke-linejoin:miter;stroke-miterlimit:4;stroke-dasharray:none;stroke-opacity:0.702418"
       d="m 151.75963,762.57742 38.93307,5.72037 c 7.88387,10.43406 32.35631,0.77462 50.93547,-2.47017 14.5781,-2.83859 62.84109,-15.89871 51.79116,-3.0036 -18.83841,9.6885 -67.80584,33.12251 -14.60021,23.23783 62.11744,-7.81191 131.76875,-5.94821 165.13159,-0.92965 23.06587,0.26507 36.39885,1.60586 41.12328,-2.87158 4.99722,-7.51347 21.91522,-7.62554 41.46163,-4.50201 48.30713,0.40855 12.67438,-13.47182 73.0988,-14.26843 l 51.69415,2.16976 c 37.41355,3.66725 55.63665,-3.56286 90.89058,-12.57554 8.12663,-4.86879 12.8827,-12.39592 -5.12847,-15.54537 -18.94965,-5.32402 -182.20592,-3.29284 -124.16168,-13.45712 22.19357,-3.9898 3.97634,-8.96572 -8.80399,-11.45036 -28.77815,-5.24939 -58.9601,-3.58883 -88.75913,-3.23487 -15.3301,0.81786 -21.97356,2.35479 -36.35958,6.07369 -27.06882,3.07096 -29.52798,0.34829 -52.27878,-5.14752 -33.06214,-6.2954 -53.49285,-0.63837 -84.37844,5.77297 -43.24494,-7.47655 -77.29431,-8.14942 -120.27097,-9.34418 -4.88684,-0.17459 -17.21264,2.07539 -7.6739,12.26262 2.60431,2.53032 5.58206,5.14206 -0.75583,5.72297 -11.33642,1.96463 -57.15548,-5.85209 -36.39922,8.38099 -41.86642,18.75387 -129.29196,17.35347 -116.926455,20.56409 14.288488,8.19321 69.512975,8.104 91.436925,8.89511 z"
       id="path215267"
       sodipodi:nodetypes="cccccccccccccccccccccccc" />
    <rect
       style="fill:#820a0c;fill-opacity:1;fill-rule:evenodd;stroke:#75000c;stroke-width:2.01084;stroke-linecap:round;stroke-linejoin:bevel;stroke-miterlimit:4;stroke-dasharray:none;stroke-opacity:0.702418;paint-order:normal"
       id="rect230231-38"
       width="214.36601"
       height="43.745525"
       x="304.29224"
       y="720.25885"
       rx="107.18301"
       ry="21.872763" />
    <rect
       style="fill:#820a0c;fill-opacity:1;fill-rule:evenodd;stroke:#75000c;stroke-width:3.80116;stroke-linecap:round;stroke-linejoin:bevel;stroke-miterlimit:4;stroke-dasharray:none;stroke-opacity:0.702418;paint-order:normal"
       id="rect230231"
       width="195.28899"
       height="30.510983"
       x="313.63577"
       y="726.88434"
       rx="97.644493"
       ry="15.255491" />
    <rect
       style="fill:#820a0c;fill-opacity:1;fill-rule:evenodd;stroke:#75000c;stroke-width:2.49991;stroke-linecap:round;stroke-linejoin:bevel;stroke-miterlimit:4;stroke-dasharray:none;stroke-opacity:0.702418;paint-order:normal"
       id="rect230231-3"
       width="147.28177"
       height="17.498625"
       x="338.10861"
       y="731.48651"
       rx="73.640884"
       ry="8.7493124" />
    <path
       style="fill:#7b393b;fill-opacity:1;stroke:#000000;stroke-width:0.706934px;stroke-linecap:butt;stroke-linejoin:miter;stroke-opacity:1;paint-order:fill markers stroke"
       d="m 350.53145,710.75487 c 4.58679,2.9037 4.13359,-1.1607 2.65563,-6.3657 -1.84022,-11.6282 -11.70866,-25.57665 -9.0945,-28.07451 1.89071,-3.17862 5.69628,4.3078 8.82956,6.25827 0.48639,-6.73581 -3.86101,-16.77026 -5.36945,-24.1902 -1.55379,-15.11681 11.50991,-13.11555 9.76534,3.84311 0.0595,12.5883 0.47896,16.02801 7.52497,23.10261 2.04097,1.54137 3.47182,0.81613 4.89394,-0.61064 2.95374,-3.82626 4.68928,-2.31125 7.11884,1.11554 3.61135,5.12802 8.01147,5.11039 9.80665,0.26346 1.6543,-9.33151 -0.31991,-11.85636 -4.0178,-19.64984 -3.59376,-8.23969 -2.03312,-15.72079 3.01042,-6.21681 1.78407,4.61817 2.40711,9.16895 2.62386,13.82498 -0.30281,7.54398 1.09637,14.35984 2.36426,22.08543 6.81209,11.5311 11.33889,12.1066 17.16756,0.9416 0.28689,-10.06537 6.7356,-8.48823 4.99877,-0.4737 -0.74631,7.8859 4.85196,7.2227 7.81797,-0.1054 0.84412,-2.6722 1.85627,-5.3256 2.42209,-7.54137 1.19368,-4.67442 5.32322,-6.30269 4.38195,-1.42837 l -2.34384,7.61874 c -3.11072,9.1771 -1.91056,12.6981 7.43596,7.9743 7.76264,-7.8908 9.83597,-18.11861 15.97993,-29.42498 13.23094,-18.06672 11.79629,-3.9208 3.5405,8.36097 -7.95606,8.54004 -9.20607,7.23706 -10.63123,20.46461 2.82129,0.8647 3.42481,-1.1329 5.11065,-2.6844 2.52509,-1.8895 4.21959,-5.5296 7.47511,1.9337 1.58024,3.6776 3.21352,2.6974 4.95223,-1.5292 6.20264,-12.60791 16.07953,-28.29489 21.29017,-23.98949 2.72559,3.09442 -9.1125,13.30371 -15.05522,19.30869 -5.88955,19.8283 -1.4803,18.2178 14.35102,7.189 l -0.53049,12.7151 -8.50875,16.4016 -109.20632,1.5597 -10.72763,-5.3203 -8.92998,-15.039 c 0.9858,-6.7553 0.99158,-9.4017 8.89783,-2.3175 z"
       id="path241368"
       sodipodi:nodetypes="cccccccccccccccccscccccccccccccccccc" />
    <path
       style="fill:#820a0c;fill-opacity:1;stroke:#000000;stroke-width:0.4;stroke-linecap:butt;stroke-linejoin:miter;stroke-miterlimit:4;stroke-dasharray:none;stroke-opacity:1"
       d="m 485.65871,736.92577 c -6.58904,-26.2241 -2.02592,-32.9596 19.64613,-47.10613 17.12824,-7.27617 27.16279,-12.68244 22.93091,-18.52757 -1.28556,-5.83707 -18.69219,3.29805 -26.40984,16.35167 -12.19973,10.13413 -16.81439,7.23383 -14.08969,-5.35928 1.70163,-4.08653 4.87695,-8.2222 4.87695,-8.2222 5.20489,-6.66849 16.42633,-18.8188 11.56425,-21.30592 -6.93201,-3.54596 -18.38452,15.16303 -18.9533,29.89825 -2.32516,11.87528 -3.68551,17.46318 -14.11535,18.40518 -6.5265,23.3343 -20.46359,25.1398 -42.26579,11.9069 -7.95313,1.7044 -4.48836,9.8365 -23.10652,8.769 -13.6068,-0.3585 -18.17891,-13.482 -27.84013,-27.7043 -4.22729,-1.9681 -4.96492,0.6555 -8.85056,3.4358 -6.60984,-1.7392 -10.53922,-7.26616 -14.27814,-12.12875 3.88106,8.13905 11.15746,19.46265 13.25152,28.33305 3.58862,15.2012 -7.02535,32.0594 -22.4984,1.5017 -7.32402,-20.3154 -10.00834,-40.79313 -13.89946,-40.8941 -3.11203,-0.10066 -4.96904,0.38694 -2.01673,6.77712 0.67819,1.4679 -0.62608,2.67921 -2.88618,1.94872 -3.56572,-4.60222 -9.70252,-8.12056 -13.86292,-8.6377 -2.5729,3.06272 4.03599,5.23244 5.69732,6.4736 10.7513,6.83713 15.80793,18.12866 19.79738,27.50256 4.53066,10.6457 5.93361,20.9371 5.02005,28.7602 v 0.2518 c 30.60423,12.518 51.09672,11.1479 83.52601,11.6185 20.39739,-0.6355 41.02269,-4.4361 58.76249,-12.0481 z"
       id="path230568"
       sodipodi:nodetypes="ccccccscccccccsccscccscccc" />
  </g>
</svg>
